<svg width="80" height="80" viewBox="0 0 80 80" fill="none" xmlns="http://www.w3.org/2000/svg">
<path d="M62.6881 34.3041C62.7029 34.6588 62.8221 35.0014 63.0308 35.2886C63.2396 35.5759 63.5285 35.7951 63.8613 35.9187C64.1942 36.0424 64.5562 36.065 64.9018 35.9837C65.2475 35.9025 65.5614 35.7209 65.8043 35.4619C66.0471 35.2028 66.2081 34.8778 66.2669 34.5276C66.3258 34.1775 66.2799 33.8177 66.135 33.4935C65.9901 33.1693 65.7528 32.8951 65.4526 32.7053C65.1525 32.5156 64.8031 32.4186 64.4481 32.4267C63.9661 32.4434 63.5104 32.6503 63.1806 33.0021C62.8508 33.3539 62.6737 33.8221 62.6881 34.3041Z" fill="#9B1006"/>
<path d="M54.9868 48.8641C56.8189 48.8641 58.3041 47.3454 58.3041 45.4721C58.3041 43.5987 56.8189 42.0801 54.9868 42.0801C53.1547 42.0801 51.6694 43.5987 51.6694 45.4721C51.6694 47.3454 53.1547 48.8641 54.9868 48.8641Z" fill="#9B1006"/>
<path d="M63.6161 47.0932C64.8827 47.0932 65.9094 46.0426 65.9094 44.7466C65.9094 43.4505 64.8827 42.3999 63.6161 42.3999C62.3495 42.3999 61.3228 43.4505 61.3228 44.7466C61.3228 46.0426 62.3495 47.0932 63.6161 47.0932Z" fill="#9B1006"/>
<path d="M57.632 36.8749C59.3345 36.8749 60.7146 35.4661 60.7146 33.7282C60.7146 31.9904 59.3345 30.5815 57.632 30.5815C55.9295 30.5815 54.5493 31.9904 54.5493 33.7282C54.5493 35.4661 55.9295 36.8749 57.632 36.8749Z" fill="#9B1006"/>
<path d="M60.9707 29.6318C61.5302 29.6445 62.0808 29.4902 62.5522 29.1886C63.0237 28.887 63.3945 28.4518 63.6175 27.9385C63.8405 27.4252 63.9055 26.8571 63.8042 26.3067C63.7028 25.7563 63.4398 25.2485 63.0487 24.8483C62.6575 24.448 62.156 24.1734 61.608 24.0595C61.0601 23.9455 60.4907 23.9974 59.9724 24.2086C59.4541 24.4197 59.0104 24.7805 58.6981 25.2448C58.3857 25.7092 58.2188 26.2561 58.2187 26.8158C58.2145 27.1814 58.2823 27.5442 58.4183 27.8836C58.5543 28.223 58.7559 28.5323 59.0114 28.7938C59.267 29.0553 59.5715 29.2639 59.9077 29.4076C60.2439 29.5514 60.6051 29.6276 60.9707 29.6318Z" fill="#9B1006"/>
<path d="M64.0001 51.9254C63.9875 51.3456 63.8039 50.7824 63.4724 50.3065C63.1408 49.8306 62.6761 49.4633 62.1366 49.2506C61.597 49.0379 61.0067 48.9892 60.4396 49.1108C59.8725 49.2324 59.354 49.5188 58.9491 49.934C58.5442 50.3492 58.2709 50.8748 58.1636 51.4448C58.0563 52.0147 58.1198 52.6037 58.346 53.1377C58.5722 53.6717 58.9511 54.127 59.4351 54.4465C59.9192 54.766 60.4868 54.9354 61.0668 54.9334C61.8542 54.9222 62.6051 54.5993 63.1549 54.0354C63.7047 53.4716 64.0086 52.7129 64.0001 51.9254Z" fill="#9B1006"/>
<path d="M48.5121 57.8774C49.7021 57.8774 50.6668 56.8889 50.6668 55.6694C50.6668 54.45 49.7021 53.4614 48.5121 53.4614C47.3221 53.4614 46.3574 54.45 46.3574 55.6694C46.3574 56.8889 47.3221 57.8774 48.5121 57.8774Z" fill="#9B1006"/>
<path d="M46.592 66.5813C47.7584 66.5813 48.704 65.6166 48.704 64.4266C48.704 63.2367 47.7584 62.272 46.592 62.272C45.4256 62.272 44.48 63.2367 44.48 64.4266C44.48 65.6166 45.4256 66.5813 46.592 66.5813Z" fill="#9B1006"/>
<path d="M49.1734 17.6747C50.0865 17.6747 50.8267 16.9154 50.8267 15.9787C50.8267 15.042 50.0865 14.2827 49.1734 14.2827C48.2602 14.2827 47.52 15.042 47.52 15.9787C47.52 16.9154 48.2602 17.6747 49.1734 17.6747Z" fill="#9B1006"/>
<path d="M45.0454 14.9334C45.2366 14.9377 45.4247 14.8847 45.5856 14.7814C45.7464 14.678 45.8728 14.529 45.9484 14.3533C46.024 14.1777 46.0455 13.9835 46.01 13.7956C45.9746 13.6077 45.8838 13.4347 45.7493 13.2987C45.6149 13.1627 45.4429 13.07 45.2554 13.0324C45.0679 12.9948 44.8735 13.0141 44.697 13.0877C44.5205 13.1613 44.3701 13.286 44.2649 13.4457C44.1597 13.6054 44.1047 13.7929 44.1068 13.9841C44.1053 14.1083 44.1286 14.2315 44.1751 14.3466C44.2217 14.4617 44.2906 14.5665 44.3779 14.6547C44.4652 14.743 44.5691 14.8131 44.6837 14.861C44.7983 14.9088 44.9212 14.9334 45.0454 14.9334Z" fill="#9B1006"/>
<path d="M54.0266 21.8988C54.5139 21.9094 54.9934 21.7745 55.4038 21.5115C55.8142 21.2484 56.1369 20.8691 56.3308 20.4218C56.5247 19.9746 56.581 19.4797 56.4924 19.0003C56.4039 18.521 56.1745 18.0789 55.8336 17.7304C55.4927 17.3819 55.0558 17.1429 54.5785 17.0439C54.1012 16.9448 53.6052 16.9902 53.1538 17.1742C52.7024 17.3582 52.316 17.6725 52.044 18.0771C51.772 18.4816 51.6267 18.958 51.6266 19.4454C51.6209 20.0886 51.8702 20.7079 52.32 21.1677C52.7698 21.6274 53.3834 21.8903 54.0266 21.8988Z" fill="#9B1006"/>
<path d="M53.0774 63.8932C54.6739 63.8932 55.9681 62.5704 55.9681 60.9386C55.9681 59.3067 54.6739 57.9839 53.0774 57.9839C51.481 57.9839 50.1868 59.3067 50.1868 60.9386C50.1868 62.5704 51.481 63.8932 53.0774 63.8932Z" fill="#9B1006"/>
<path d="M24.3094 26.8693C24.3807 27.5956 24.5346 28.3113 24.7681 29.0027C23.8525 27.8557 23.1893 26.5284 22.8216 25.1076C22.454 23.6868 22.3904 22.2044 22.6347 20.7573C21.9393 21.9313 21.5199 23.2481 21.4081 24.608C20.9814 27.584 22.4747 32.0747 25.8454 31.7867C26.2992 31.7901 26.7409 31.6403 27.099 31.3616C27.4571 31.0828 27.7107 30.6914 27.8187 30.2507C26.4283 29.3776 25.2335 28.2264 24.3094 26.8693Z" fill="#9B1006"/>
<path d="M31.6907 30.9331C33.1413 24.0638 27.6373 22.0478 27.6373 22.0478C28.1178 22.8511 28.4772 23.7209 28.704 24.6291C23.616 21.4718 26.6667 14.3145 26.6667 14.3145C24.7949 14.9581 23.0844 15.9985 21.652 17.3645C20.2197 18.7306 19.0995 20.39 18.368 22.2291C17.7608 23.6725 17.4699 25.2292 17.5147 26.7945C15.8665 27.1657 14.3883 28.0736 13.312 29.3758C14.827 29.0349 16.403 29.0752 17.8987 29.4931C16.2294 29.6197 14.6169 30.1548 13.2033 31.0514C11.7896 31.948 10.6181 33.1785 9.79199 34.6345C12.8853 32.5011 16.768 32.6398 19.104 32.6291C18.3507 32.8846 17.6561 33.2879 17.0608 33.8154C16.4655 34.3429 15.9815 34.9841 15.6373 35.7011C15.6373 35.7011 18.1973 33.9945 24.9707 35.1891C25.2693 35.1998 30.56 35.4345 31.6907 30.9331ZM29.4187 30.7305C29.2094 31.3746 28.812 31.9413 28.2778 32.3576C27.7436 32.7739 27.0971 33.0208 26.4213 33.0665C25.3327 33.2143 24.2254 33.0066 23.2644 32.4741C22.3033 31.9417 21.54 31.1132 21.088 30.1118C19.9347 27.7113 19.7662 24.9549 20.6187 22.4318C21.3388 20.3927 22.6588 18.619 24.4053 17.3438C24.151 18.3323 24.0503 19.354 24.1067 20.3731C24.2453 22.4318 25.0773 24.2985 27.9253 26.0051C28.7174 26.4576 29.3106 27.1913 29.5872 28.0606C29.8638 28.9299 29.8036 29.8714 29.4187 30.6985V30.7305Z" fill="#9B1006"/>
<path d="M39.5626 0.746582C31.7569 0.746582 24.1264 3.06126 17.6361 7.39791C11.1459 11.7346 6.08733 17.8984 3.10019 25.11C0.113048 32.3216 -0.668524 40.257 0.854306 47.9128C2.37714 55.5686 6.13597 62.6009 11.6555 68.1204C17.175 73.6399 24.2073 77.3987 31.8631 78.9216C39.5189 80.4444 47.4543 79.6628 54.6659 76.6757C61.8775 73.6886 68.0413 68.63 72.378 62.1398C76.7146 55.6495 79.0293 48.019 79.0293 40.2132C79.0293 35.0304 78.0085 29.8983 76.0251 25.11C74.0417 20.3217 71.1346 15.9709 67.4698 12.3061C63.805 8.64128 59.4542 5.73419 54.6659 3.7508C49.8776 1.76742 44.7455 0.746582 39.5626 0.746582ZM64.8213 16.7466C64.9202 16.7571 65.0134 16.7981 65.088 16.8639C70.6304 22.8367 73.8014 30.6276 74.0053 38.7732C74.0025 38.872 73.9647 38.9665 73.8986 39.0399C73.8672 39.0771 73.828 39.1069 73.7838 39.1272C73.7395 39.1475 73.6913 39.1577 73.6426 39.1572H70.9013C70.8077 39.1547 70.7185 39.1171 70.6514 39.0519C70.5842 38.9868 70.544 38.8987 70.5386 38.8052C70.3347 34.1552 69.1305 29.6037 67.008 25.4612C65.7608 23.2827 64.2646 21.2567 62.5493 19.4239C62.4826 19.3511 62.4456 19.256 62.4456 19.1572C62.4456 19.0585 62.4826 18.9634 62.5493 18.8906L64.544 16.8639C64.573 16.8152 64.6134 16.7743 64.6617 16.7446C64.71 16.7149 64.7647 16.6973 64.8213 16.6932V16.7466ZM45.984 52.5439C46.548 51.1609 46.9975 49.7339 47.328 48.2772L59.8186 60.7999C59.8547 60.8339 59.883 60.8754 59.9014 60.9215C59.9198 60.9675 59.928 61.017 59.9253 61.0666C59.9252 61.1167 59.9148 61.1663 59.8946 61.2122C59.8744 61.2581 59.8449 61.2993 59.808 61.3332C58.6788 62.3971 57.462 63.3641 56.1706 64.2239C51.9785 67.1164 47.0862 68.8294 42.0053 69.1839C41.9534 69.1924 41.9002 69.1889 41.85 69.1734C41.7997 69.158 41.7536 69.1312 41.7154 69.0951C41.6772 69.0589 41.6479 69.0144 41.6297 68.9651C41.6115 68.9157 41.605 68.8629 41.6106 68.8106V63.8399C42.432 63.4026 44.0106 63.0506 44.352 60.5652C44.3413 60.5652 43.4666 58.0906 45.984 52.5439ZM47.9253 46.0799C49.4589 44.3508 50.6823 42.3696 51.5413 40.2239L68.448 40.8639C68.4981 40.864 68.5477 40.8744 68.5936 40.8946C68.6395 40.9148 68.6807 40.9443 68.7146 40.9812C68.7811 41.0579 68.8155 41.1572 68.8106 41.2586C68.6111 48.0223 66.0484 54.5024 61.568 59.5732C61.535 59.6121 61.4942 59.6436 61.4483 59.6657C61.4023 59.6877 61.3522 59.6998 61.3013 59.7012C61.2054 59.6999 61.1138 59.6617 61.0453 59.5946L47.9253 46.0799ZM53.0133 31.7012L51.8933 32.5012C51.8933 32.5012 52.2133 31.1892 52.3946 30.0052C52.3946 29.1306 52.8426 28.9386 52.8426 28.9386L60.8 20.6186C60.8723 20.5494 60.9667 20.5079 61.0666 20.5012C61.164 20.5054 61.2559 20.5476 61.3226 20.6186C62.9227 22.3235 64.3122 24.2143 65.4613 26.2506C67.4528 30.1206 68.5912 34.3726 68.8 38.7199C68.8056 38.7704 68.7999 38.8214 68.7833 38.8694C68.7667 38.9174 68.7396 38.9611 68.704 38.9972C68.6714 39.0359 68.6305 39.0665 68.5843 39.0869C68.538 39.1072 68.4878 39.1167 68.4373 39.1146L52.0853 38.5172C52.9208 36.3484 53.2386 34.0145 53.0133 31.7012ZM41.5253 6.15458C41.5255 6.05216 41.5635 5.95341 41.632 5.87725C41.7048 5.81144 41.8006 5.77695 41.8986 5.78125C49.8872 6.31749 57.449 9.58244 63.3173 15.0292C63.3542 15.0632 63.3837 15.1044 63.4039 15.1503C63.4241 15.1962 63.4346 15.2458 63.4346 15.2959C63.4362 15.3469 63.4275 15.3977 63.4092 15.4453C63.3909 15.4929 63.3633 15.5364 63.328 15.5732L61.312 17.6426C61.2402 17.7113 61.1446 17.7495 61.0453 17.7492C61 17.7509 60.9549 17.7432 60.9127 17.7267C60.8705 17.7102 60.8321 17.6852 60.8 17.6532C55.6352 12.8156 48.9412 9.93653 41.8773 9.51458C41.7811 9.50654 41.6915 9.46256 41.6262 9.3914C41.561 9.32023 41.525 9.22712 41.5253 9.13058V6.15458ZM41.5253 11.8399C41.5139 11.7446 41.5408 11.6488 41.6 11.5732C41.6356 11.5363 41.6789 11.5076 41.7268 11.4892C41.7747 11.4708 41.8261 11.4631 41.8773 11.4666C48.4408 11.8232 54.6801 14.4342 59.5413 18.8586C59.5792 18.8924 59.61 18.9333 59.632 18.9791C59.654 19.0249 59.6667 19.0745 59.6693 19.1252C59.6681 19.2275 59.6303 19.3259 59.5626 19.4026L52.352 27.0079C52.2346 23.1786 49.248 19.9679 49.0453 19.6692L48.4373 22.1012C47.8506 18.9972 45.3013 16.0959 41.6853 13.9732C41.6265 13.9433 41.5774 13.8974 41.5434 13.8408C41.5095 13.7842 41.4921 13.7192 41.4933 13.6532L41.5253 11.8399ZM39.392 5.68525C39.4414 5.68377 39.4906 5.69242 39.5366 5.71066C39.5825 5.7289 39.6243 5.75634 39.6592 5.79131C39.6942 5.82628 39.7217 5.86802 39.7399 5.91398C39.7581 5.95995 39.7668 6.00915 39.7653 6.05858V9.03458C39.7682 9.13184 39.7331 9.22639 39.6673 9.29812C39.6016 9.36984 39.5104 9.41307 39.4133 9.41858C37.3368 9.40518 35.2699 9.69995 33.28 10.2932H33.1733C33.1041 10.2932 33.0367 10.2708 32.9813 10.2292C29.5786 8.22392 25.9946 8.68258 25.952 8.53325C25.9093 8.38391 32.4266 5.63192 39.3706 5.68525H39.392ZM39.68 11.5199V12.6399C39.68 12.7252 39.5946 12.9172 39.424 12.8532C38.1446 12.2454 36.7624 11.8835 35.3493 11.7866C35.2 11.7866 35.4666 11.5306 35.6053 11.5199C36.8416 11.3403 38.0894 11.2512 39.3386 11.2532C39.3825 11.2481 39.4269 11.2521 39.4691 11.2649C39.5113 11.2778 39.5504 11.2992 39.584 11.3279C39.6301 11.3815 39.6564 11.4493 39.6586 11.5199H39.68ZM34.496 66.8586C34.9866 66.8586 35.6906 67.2639 36.1813 66.7519C36.5059 66.419 36.8054 66.0624 37.0773 65.6852C37.1733 65.5679 37.1626 65.2372 37.0773 65.1626C35.3493 64.1599 30.976 64.0959 31.0506 64.0959C30.0906 63.9572 30.2613 62.7412 28.9173 61.6639C28.7336 61.5048 28.519 61.3854 28.2869 61.3134C28.0549 61.2413 27.8104 61.218 27.5689 61.2451C27.3274 61.2721 27.0941 61.3489 26.8838 61.4706C26.6734 61.5922 26.4905 61.7561 26.3466 61.9519C28.0106 63.9999 28.0746 65.7066 28.6293 66.1332L28.8853 66.3039L29.2053 66.4426C29.44 66.5386 31.1786 66.7412 31.6373 66.8159C31.136 69.5999 31.6373 72.8746 33.6746 74.2826C29.184 73.5572 26.208 70.7732 25.3226 67.9999C25.1785 69.3466 25.4034 70.7072 25.9733 71.9359C24.172 71.1198 22.681 69.7458 21.7206 68.0171C20.7601 66.2883 20.3813 64.2965 20.64 62.3359C18.72 64.3946 19.5733 68.3519 19.5733 68.3519C14.1013 64.5546 13.6853 58.8692 15.488 54.2399C13.7066 55.0186 12.2026 57.9946 12.4373 61.5466C10.7916 59.5245 9.76178 57.0719 9.47055 54.4811C9.17931 51.8902 9.63892 49.2703 10.7946 46.9332C9.4933 47.4879 7.7973 49.6106 7.00797 52.2666C7.00797 52.1706 3.0293 42.9546 11.6906 36.6186C9.07289 37.3744 6.75688 38.9296 5.06663 41.0666C4.8501 38.2583 5.3195 35.4394 6.43441 32.8528C7.54932 30.2662 9.27631 27.9894 11.4666 26.2186C9.68915 26.6086 8.06271 27.5052 6.78397 28.7999C7.3833 26.1304 8.67767 23.6668 10.5359 21.6587C12.3941 19.6506 14.7502 18.1694 17.3653 17.3652C15.9005 17.1871 14.4158 17.4469 13.0986 18.1119C14.5173 16.1599 17.0346 14.0372 22.2186 13.6639C21.504 12.8852 19.0186 13.0132 18.0693 13.3119C19.6471 12.0961 21.5014 11.2899 23.4666 10.9652C26.498 10.5266 29.5893 11.1039 32.258 12.6071C34.9268 14.1103 37.0227 16.4548 38.2186 19.2746C38.7733 17.7492 36.736 14.2292 35.7653 13.5359C37.304 13.8597 38.7576 14.5029 40.032 15.4239C41.5905 16.9591 42.7764 18.831 43.4986 20.8959L43.3813 17.9306C45.9222 20.5377 47.3359 24.0395 47.3173 27.6799L49.0666 24.1386C52.2666 28.5332 48.3306 36.8106 48.3306 36.8106L50.8373 35.4239C50.7093 36.3306 50.432 40.1066 46.176 44.9492L44.864 43.1892C44.864 43.1892 46.7093 40.6932 45.6213 38.6132C45.536 38.4639 44.3093 42.1012 40.6506 43.0292C41.6009 41.8557 42.1961 40.4351 42.3661 38.9346C42.5362 37.4342 42.2741 35.9164 41.6106 34.5599C40.6933 43.4666 34.7626 42.7839 34.7626 42.7839C35.0157 41.7355 34.9156 40.6329 34.4777 39.6473C34.0399 38.6617 33.2889 37.8482 32.3413 37.3332L32.992 39.9786C32.4586 38.9119 29.792 37.8452 30.4853 34.4746C30.4853 34.4746 27.648 37.6746 30.176 40.2772C30.176 40.2772 31.2426 41.2052 31.168 42.1119C31.168 42.1119 29.856 42.5386 29.0346 40.6932C29.12 40.8852 27.872 42.3572 29.4293 43.6692C29.8997 44.0441 30.4347 44.3297 31.008 44.5119C30.8383 45.441 30.9144 46.3983 31.2287 47.2889C31.543 48.1795 32.0847 48.9725 32.8 49.5892C32.5866 47.1039 33.5253 45.4612 34.24 45.3226C37.088 45.6746 38.1866 45.5466 42.7733 44.6292C43.4917 45.5899 44.3347 46.4508 45.28 47.1892C44.9937 49.2627 44.3741 51.2762 43.4453 53.1519C42.6972 54.6244 42.2924 56.2472 42.2613 57.8986C41.4262 57.8765 40.5925 57.9771 39.7866 58.1972C38.5493 56.7999 37.888 55.6692 35.1253 55.3919C34.5786 55.3463 34.0286 55.4253 33.5168 55.623C33.005 55.8207 32.5447 56.1319 32.1706 56.5332C31.584 59.6799 29.728 59.7332 30.0373 60.0746C30.7006 60.8602 31.3237 61.6791 31.904 62.5279C32.5333 62.5279 33.536 62.7412 34.9973 62.9972C36.681 63.2227 38.2944 63.8163 39.7226 64.7359V68.8319C39.7067 68.886 39.6803 68.9364 39.6448 68.9802C39.6094 69.024 39.5656 69.0603 39.516 69.0871C39.4664 69.1139 39.412 69.1305 39.3559 69.1362C39.2999 69.1418 39.2432 69.1363 39.1893 69.1199C37.4993 69.1587 35.8089 69.066 34.1333 68.8426C34.0373 68.6826 33.9946 66.9012 34.496 66.8586ZM37.5573 61.5252C36.4475 60.7613 35.116 60.3863 33.7706 60.4586L33.8453 58.8372C34.147 58.6911 34.4764 58.611 34.8115 58.6022C35.1467 58.5935 35.4798 58.6564 35.7887 58.7866C36.0976 58.9168 36.3752 59.1114 36.6029 59.3574C36.8306 59.6035 37.0033 59.8952 37.1093 60.2132L37.5573 61.5252ZM39.6906 74.5492C39.6074 74.6073 39.5129 74.6473 39.4133 74.6666C38.231 74.6678 37.0796 74.289 36.1289 73.5861C35.1782 72.8832 34.4786 71.8933 34.1333 70.7626C35.8443 70.9893 37.571 71.0749 39.296 71.0186C39.3413 71.0166 39.3866 71.0246 39.4285 71.042C39.4704 71.0595 39.508 71.0859 39.5385 71.1195C39.5691 71.1531 39.5918 71.193 39.6052 71.2364C39.6186 71.2798 39.6223 71.3256 39.616 71.3706L39.7226 74.3146C39.7336 74.4015 39.7107 74.4894 39.6586 74.5599L39.6906 74.5492ZM39.4666 62.3786C39.4666 62.3786 41.2266 60.1172 42.8053 61.3119L41.4826 62.2826C41.1648 62.1309 40.8143 62.0603 40.4626 62.0771C40.1108 62.0938 39.7686 62.1974 39.4666 62.3786ZM63.3706 65.0666C58.9013 70.1972 50.496 74.4959 41.824 74.6666C41.824 74.6666 41.4933 74.6666 41.4933 74.2186V71.4026C41.4919 71.3549 41.4999 71.3075 41.5168 71.263C41.5337 71.2184 41.5592 71.1776 41.5919 71.143C41.6246 71.1083 41.6638 71.0804 41.7073 71.0609C41.7508 71.0414 41.7977 71.0306 41.8453 71.0292C46.112 70.9012 52.3733 68.8959 57.0986 65.7812C58.4991 64.848 59.816 63.7952 61.0346 62.6346C61.1039 62.5693 61.1955 62.533 61.2906 62.533C61.3858 62.533 61.4774 62.5693 61.5466 62.6346L63.3706 64.5119C63.4089 64.547 63.4392 64.59 63.4594 64.6378C63.4797 64.6857 63.4894 64.7373 63.488 64.7892C63.4849 64.8931 63.443 64.992 63.3706 65.0666ZM65.28 63.2426C65.2465 63.28 65.2053 63.3099 65.1593 63.3301C65.1133 63.3504 65.0636 63.3605 65.0133 63.3599C64.9655 63.3617 64.9178 63.3531 64.8736 63.3347C64.8294 63.3163 64.7897 63.2885 64.7573 63.2532L62.9333 61.3759C62.8924 61.3399 62.8597 61.2956 62.8373 61.2459C62.8149 61.1962 62.8033 61.1424 62.8033 61.0879C62.8033 61.0334 62.8149 60.9796 62.8373 60.9299C62.8597 60.8803 62.8924 60.8359 62.9333 60.7999C67.7601 55.3845 70.5147 48.4356 70.7093 41.1839C70.7121 41.0868 70.7526 40.9945 70.8223 40.9268C70.8921 40.8591 70.9854 40.8212 71.0826 40.8212H73.8026C73.8528 40.8213 73.9024 40.8318 73.9483 40.852C73.9942 40.8722 74.0354 40.9016 74.0693 40.9386C74.1387 41.0142 74.1768 41.1133 74.176 41.2159C73.9232 49.3802 70.7736 57.1881 65.2906 63.2426H65.28Z" fill="#9B1006"/>
</svg>
