<svg width="292" height="292" viewBox="0 0 292 292" fill="none" xmlns="http://www.w3.org/2000/svg">
<path d="M2.10531 205.781C4.19038 201.795 8.31603 199.557 12.5945 199.804C13.8178 198.149 15.5271 196.927 17.5277 196.301C20.0217 195.52 22.6708 195.757 24.9857 196.968C27.3017 198.179 29.0075 200.22 29.7877 202.714C30.3797 204.603 30.3865 206.58 29.8299 208.433C32.6096 211.543 33.3299 216.178 31.2865 220.087C29.4472 223.6 25.8543 225.613 22.1393 225.613C20.531 225.613 18.8999 225.236 17.3794 224.44C16.1584 223.801 15.0862 222.923 14.2205 221.874C11.7419 222.38 9.12358 222.039 6.81838 220.833C4.1784 219.453 2.23421 217.126 1.34395 214.283C0.453695 211.44 0.724588 208.421 2.10531 205.781ZM8.69186 211.983C8.96789 212.863 9.56956 213.583 10.3874 214.011C11.487 214.585 12.8186 214.525 13.8669 213.849C14.8917 213.19 16.1681 213.053 17.3064 213.481C18.4471 213.909 19.3174 214.853 19.6533 216.025C19.8523 216.72 20.312 217.284 20.949 217.617C22.2197 218.285 23.7977 217.79 24.4638 216.518C25.1294 215.245 24.6355 213.667 23.3837 213.013L23.269 212.957C22.1991 212.435 21.4315 211.447 21.1886 210.282C20.9467 209.116 21.257 207.903 22.0303 206.998C22.1364 206.873 22.2271 206.742 22.2984 206.605C22.5567 206.111 22.6069 205.546 22.441 205.015C22.275 204.484 21.9117 204.049 21.4167 203.791C21.115 203.633 20.7853 203.552 20.454 203.552C20.2447 203.552 20.0348 203.585 19.8284 203.649C19.2974 203.815 18.8622 204.179 18.605 204.67C18.5303 204.813 18.4722 204.967 18.43 205.128C18.1545 206.202 17.4296 207.104 16.4407 207.604C15.4529 208.104 14.2969 208.156 13.2675 207.742C11.6204 207.082 9.75378 207.772 8.92854 209.35C8.50024 210.168 8.41697 211.102 8.69186 211.983Z" fill="url(#paint0_linear)"/>
<path d="M50.8632 159.142C50.5399 160.232 50.2382 161.357 49.9695 162.485C49.5469 164.253 47.9683 165.442 46.2277 165.442C45.9312 165.442 45.6306 165.407 45.3301 165.335C43.2627 164.841 41.9869 162.764 42.4808 160.696C42.7819 159.434 43.1195 158.173 43.4828 156.951C44.0879 154.913 46.2294 153.749 48.2689 154.356C50.3066 154.96 51.4683 157.103 50.8632 159.142Z" fill="url(#paint1_linear)"/>
<path d="M76.5711 126.297C70.4728 130.375 65.2316 135.15 60.9942 140.489C59.6859 142.137 58.4552 143.864 57.3357 145.623C56.6975 146.625 56.077 147.666 55.4935 148.718C54.7903 149.985 53.4781 150.699 52.1247 150.699C51.4922 150.699 50.8512 150.543 50.2592 150.214C48.4 149.181 47.7299 146.838 48.7627 144.979C49.4214 143.793 50.1206 142.618 50.8421 141.487C52.1036 139.505 53.4912 137.558 54.9649 135.702C59.6996 129.737 65.5282 124.42 72.2915 119.897C74.0583 118.715 76.4497 119.191 77.6314 120.957C78.813 122.724 78.3385 125.116 76.5711 126.297Z" fill="url(#paint2_linear)"/>
<path d="M218.832 141.232C218.227 141.579 217.568 141.745 216.917 141.745C215.585 141.745 214.288 141.051 213.576 139.813C212.538 138.006 212.133 137.463 210.623 135.443L210.503 135.283C206.656 130.134 201.956 125.58 196.533 121.75C194.797 120.524 194.383 118.122 195.61 116.385C196.837 114.65 199.239 114.235 200.975 115.462C207.059 119.759 212.339 124.877 216.672 130.676L216.792 130.836C218.341 132.91 218.982 133.769 220.251 135.976C221.31 137.819 220.675 140.172 218.832 141.232Z" fill="url(#paint3_linear)"/>
<path d="M225.151 155.139C224.59 155.433 223.985 155.572 223.387 155.572C222.069 155.572 220.782 154.897 220.055 153.708C219.841 153.357 219.689 152.986 219.598 152.607C219.46 152.269 219.149 151.53 218.454 149.959C217.595 148.014 218.474 145.741 220.418 144.881C222.364 144.023 224.636 144.9 225.496 146.845C226.173 148.375 226.538 149.237 226.733 149.718C226.991 150.351 228.12 153.585 225.151 155.139Z" fill="url(#paint4_linear)"/>
<path d="M150.747 128.195C151.1 128.141 159.552 126.905 170.133 130.67C179.777 134.1 193.181 142.502 202.272 163.045C202.799 164.236 202.689 165.612 201.978 166.703C201.267 167.795 200.054 168.453 198.752 168.453H151.331C149.205 168.453 147.482 166.73 147.482 164.603V132.001C147.482 130.1 148.868 128.485 150.747 128.195ZM155.181 160.753H192.575C180.328 138.268 162.483 135.676 155.181 135.631V160.753Z" fill="url(#paint5_linear)"/>
<path d="M87.1078 143.833C96.352 135.365 112.771 125.74 138.491 127.971C140.481 128.144 142.008 129.81 142.008 131.807V164.604C142.008 166.73 140.285 168.453 138.158 168.453H76.5764C75.3041 168.453 74.1127 167.823 73.3958 166.771C72.6789 165.72 72.5283 164.381 72.9943 163.196C73.1545 162.785 77.0572 153.039 87.1078 143.833ZM134.309 160.753V135.41C117.593 134.682 103.561 139.334 92.5623 149.279C88.0722 153.339 84.9549 157.564 82.9673 160.753H134.309V160.753Z" fill="url(#paint6_linear)"/>
<path d="M152.318 177.776H162.197C164.009 177.776 165.49 179.258 165.49 181.068C165.49 182.879 164.008 184.361 162.197 184.361H152.318C150.507 184.361 149.025 182.879 149.025 181.068C149.025 179.258 150.507 177.776 152.318 177.776Z" fill="url(#paint7_linear)"/>
<path d="M76.7109 177.776H86.5904C88.4017 177.776 89.8828 179.258 89.8828 181.068C89.8828 182.879 88.4011 184.361 86.5904 184.361H76.7109C74.8996 184.361 73.4179 182.879 73.4179 181.068C73.4179 179.258 74.8996 177.776 76.7109 177.776Z" fill="url(#paint8_linear)"/>
<path d="M35.8693 186.949C36.4687 181.951 38.4722 178.33 41.8239 176.184C45.0565 174.113 48.6466 174.048 51.0527 174.344C57.3729 152.56 71.5349 133.691 89.2682 124.317C95.2982 121.129 101.534 118.805 107.712 117.133H86.59C84.2044 117.133 82.2705 115.199 82.2705 112.814C82.2705 110.429 84.205 108.495 86.59 108.495H94.4735C93.7138 107.06 93.2787 105.427 93.2787 103.694V85.816C93.2787 80.1368 97.8994 75.5167 103.579 75.5167H113.69C113.472 74.6841 113.345 73.8161 113.345 72.9161V55.0391C113.345 49.3599 117.965 44.7392 123.644 44.7392H128.69L126.761 42.9621C125.197 41.5215 125.096 39.0863 126.537 37.5225C127.978 35.9576 130.413 35.8583 131.977 37.2989L137.293 42.1962L142.526 37.3149C144.082 35.8646 146.516 35.9496 147.968 37.5048C149.417 39.0595 149.332 41.4953 147.778 42.9462L145.855 44.7392H150.876C156.555 44.7392 161.176 49.3599 161.176 55.0391V72.9172C161.176 73.8166 161.048 74.6852 160.83 75.5179H170.942C176.621 75.5179 181.242 80.138 181.242 85.8171V103.695C181.242 105.428 180.807 107.061 180.047 108.496H187.93C190.316 108.496 192.25 110.43 192.25 112.815C192.25 115.2 190.316 117.134 187.93 117.134H169.512C180.793 120.144 192.623 125.474 201.011 134.868C204.861 139.181 207.765 144.032 210.574 148.724C211.18 149.738 211.788 150.753 212.406 151.763C212.556 152.009 212.855 152.552 213.25 153.276C215.092 156.659 216.433 158.921 217.252 160.028H232.568C250.192 160.028 265.26 172.028 271.119 188.841C273.629 188.738 277.618 189.084 280.921 191.71C283.056 193.409 285.637 196.719 285.8 202.843C285.934 207.874 284.479 211.748 281.475 214.359C280.135 215.523 278.657 216.274 277.215 216.751C277.86 217.667 278.242 218.78 278.242 219.98V221.027C278.242 224.134 275.699 226.677 272.591 226.677H262.27C261.23 226.927 260.153 227.07 259.044 227.07H253.041C251.745 236.304 245.856 244.085 237.766 248.02H257.004C259.13 248.02 260.854 249.743 260.854 251.869C260.854 253.996 259.13 255.719 257.004 255.719H44.6555C42.5294 255.719 40.8059 253.996 40.8059 251.869C40.8059 249.743 42.5294 248.02 44.6555 248.02H85.1186C77.0282 244.085 71.1397 236.304 69.8428 227.07H61.9543C60.8347 227.07 59.7466 226.931 58.6984 226.677H48.3255C45.2179 226.677 42.6749 224.134 42.6749 221.027V220.674H40.3982C38.272 220.674 36.5486 218.951 36.5486 216.824V204.643C36.5486 202.516 38.272 200.793 40.3982 200.793H41.719C40.7945 200.233 39.8951 199.543 39.0785 198.672C37.213 196.681 35.1404 193.031 35.8693 186.949ZM274.141 209.615C274.944 209.438 275.769 209.116 276.424 208.547C277.608 207.519 278.173 205.668 278.103 203.047C278.036 200.527 277.378 198.746 276.151 197.755C275.409 197.155 274.462 196.83 273.531 196.667L274.141 209.615ZM113.344 83.2165H103.578C102.169 83.2165 100.977 84.4073 100.977 85.8166V90.906H113.344V83.2165ZM113.344 98.6047H100.977V103.694C100.977 105.103 102.169 106.294 103.578 106.294H113.344V98.6047ZM133.6 52.4385H123.643C122.234 52.4385 121.043 53.6298 121.043 55.0391V60.1286H133.6V52.4385ZM133.6 67.8278H121.043V72.9172C121.043 74.3265 122.234 75.5179 123.643 75.5179H130.809H133.6V67.8278ZM133.41 90.9055V85.816C133.41 84.4068 132.219 83.2159 130.809 83.2159H123.643H121.043V90.9049H133.41V90.9055ZM121.043 98.6047V106.294H130.809C132.219 106.294 133.41 105.103 133.41 103.694V98.6041H121.043V98.6047ZM153.475 55.0391C153.475 53.6298 152.284 52.4385 150.875 52.4385H141.298V60.128H153.475V55.0391ZM153.475 67.8278H141.298V75.5173H143.709H150.876C152.285 75.5173 153.476 74.3259 153.476 72.9167V67.8278H153.475ZM153.475 83.2165H150.875H143.709C142.3 83.2165 141.109 84.4073 141.109 85.8166V90.906H153.475V83.2165V83.2165ZM153.475 98.6047H141.109V103.694C141.109 105.103 142.3 106.294 143.709 106.294H153.475V98.6047V98.6047ZM173.542 85.8166C173.542 84.4073 172.351 83.2165 170.94 83.2165H161.174V90.9055H173.542V85.8166ZM170.94 106.294C172.351 106.294 173.542 105.103 173.542 103.694V98.6047H161.174V106.294H170.94V106.294ZM217.75 227.07C219.186 230.05 222.226 232.111 225.755 232.111C229.284 232.111 232.325 230.05 233.761 227.07C234.323 225.904 234.647 224.602 234.647 223.22C234.647 218.31 230.666 214.329 225.755 214.329C220.844 214.329 216.864 218.309 216.864 223.22C216.864 224.602 217.188 225.904 217.75 227.07ZM213.745 248.02C205.655 244.085 199.766 236.304 198.469 227.07H124.413C123.117 236.304 117.228 244.085 109.138 248.02H213.745ZM89.1228 227.07C90.5589 230.05 93.5992 232.111 97.1283 232.111C100.657 232.111 103.698 230.05 105.134 227.07C105.696 225.904 106.02 224.602 106.02 223.22C106.02 218.31 102.039 214.329 97.1283 214.329C92.2173 214.329 88.2365 218.309 88.2365 223.22C88.2365 224.602 88.5605 225.904 89.1228 227.07ZM54.9286 208.492C54.9582 209.736 55.0004 210.901 55.0489 211.97C55.0649 212.312 55.0997 212.648 55.1527 212.976C55.2286 213.444 55.3432 213.895 55.4892 214.33H66.8042H71.0479C74.7561 203.483 85.0422 195.66 97.1277 195.66C109.214 195.66 119.501 203.484 123.208 214.33H199.674C203.383 203.483 213.669 195.66 225.754 195.66C237.84 195.66 248.127 203.484 251.834 214.33H265.549C265.858 213.437 266.034 212.468 266.034 211.453V204.385C266.034 184.172 251.021 167.727 232.568 167.727H215.876C212.838 167.727 210.96 165.17 206.487 156.958C206.181 156.396 205.953 155.971 205.835 155.777C205.205 154.747 204.586 153.713 203.967 152.678C201.222 148.093 198.63 143.763 195.266 139.995C182.115 125.265 158.366 121.88 145.38 121.174C131.444 120.416 111.019 121.527 92.8652 131.123C74.1128 141.037 59.2647 164.024 55.9169 188.325C54.9263 195.518 54.7946 202.818 54.9286 208.492ZM44.2478 212.975H47.4181C47.3999 212.757 47.368 212.542 47.3583 212.32C47.3047 211.148 47.259 209.865 47.2282 208.493H44.2478V212.975ZM44.6761 193.385C45.3228 194.085 46.2119 194.546 47.109 194.842L48.3888 181.943C47.5425 182.006 46.6693 182.215 45.949 182.685C44.643 183.536 43.824 185.279 43.5143 187.865C43.2138 190.369 43.605 192.225 44.6761 193.385Z" fill="url(#paint9_linear)"/>
<path d="M10.7303 248.02H28.6113C30.7375 248.02 32.4609 249.743 32.4609 251.87C32.4609 253.997 30.7375 255.719 28.6113 255.719H10.7303C8.60419 255.719 6.88071 253.997 6.88071 251.87C6.88071 249.743 8.60476 248.02 10.7303 248.02Z" fill="url(#paint10_linear)"/>
<path d="M273.372 248.02H287.32C289.447 248.02 291.17 249.743 291.17 251.87C291.17 253.997 289.447 255.719 287.32 255.719H273.372C271.245 255.719 269.522 253.997 269.522 251.87C269.522 249.743 271.245 248.02 273.372 248.02Z" fill="url(#paint11_linear)"/>
<defs>
<linearGradient id="paint0_linear" x1="16.6436" y1="195.849" x2="16.6436" y2="225.613" gradientUnits="userSpaceOnUse">
<stop stop-color="#1E90FF"/>
<stop offset="0.328125" stop-color="#2014AB"/>
<stop offset="0.677083" stop-color="#712CA8"/>
<stop offset="0.859375" stop-color="#C642B0"/>
<stop offset="1" stop-color="#FF846E"/>
</linearGradient>
<linearGradient id="paint1_linear" x1="46.699" y1="154.195" x2="46.699" y2="165.442" gradientUnits="userSpaceOnUse">
<stop stop-color="#1E90FF"/>
<stop offset="0.328125" stop-color="#2014AB"/>
<stop offset="0.677083" stop-color="#712CA8"/>
<stop offset="0.859375" stop-color="#C642B0"/>
<stop offset="1" stop-color="#FF846E"/>
</linearGradient>
<linearGradient id="paint2_linear" x1="63.2794" y1="119.247" x2="63.2794" y2="150.699" gradientUnits="userSpaceOnUse">
<stop stop-color="#1E90FF"/>
<stop offset="0.328125" stop-color="#2014AB"/>
<stop offset="0.677083" stop-color="#712CA8"/>
<stop offset="0.859375" stop-color="#C642B0"/>
<stop offset="1" stop-color="#FF846E"/>
</linearGradient>
<linearGradient id="paint3_linear" x1="207.834" y1="114.757" x2="207.834" y2="141.745" gradientUnits="userSpaceOnUse">
<stop stop-color="#1E90FF"/>
<stop offset="0.328125" stop-color="#2014AB"/>
<stop offset="0.677083" stop-color="#712CA8"/>
<stop offset="0.859375" stop-color="#C642B0"/>
<stop offset="1" stop-color="#FF846E"/>
</linearGradient>
<linearGradient id="paint4_linear" x1="222.641" y1="144.552" x2="222.641" y2="155.572" gradientUnits="userSpaceOnUse">
<stop stop-color="#1E90FF"/>
<stop offset="0.328125" stop-color="#2014AB"/>
<stop offset="0.677083" stop-color="#712CA8"/>
<stop offset="0.859375" stop-color="#C642B0"/>
<stop offset="1" stop-color="#FF846E"/>
</linearGradient>
<linearGradient id="paint5_linear" x1="175.042" y1="127.959" x2="175.042" y2="168.453" gradientUnits="userSpaceOnUse">
<stop stop-color="#1E90FF"/>
<stop offset="0.328125" stop-color="#2014AB"/>
<stop offset="0.677083" stop-color="#712CA8"/>
<stop offset="0.859375" stop-color="#C642B0"/>
<stop offset="1" stop-color="#FF846E"/>
</linearGradient>
<linearGradient id="paint6_linear" x1="107.368" y1="127.644" x2="107.368" y2="168.453" gradientUnits="userSpaceOnUse">
<stop stop-color="#1E90FF"/>
<stop offset="0.328125" stop-color="#2014AB"/>
<stop offset="0.677083" stop-color="#712CA8"/>
<stop offset="0.859375" stop-color="#C642B0"/>
<stop offset="1" stop-color="#FF846E"/>
</linearGradient>
<linearGradient id="paint7_linear" x1="157.258" y1="177.776" x2="157.258" y2="184.361" gradientUnits="userSpaceOnUse">
<stop stop-color="#1E90FF"/>
<stop offset="0.328125" stop-color="#2014AB"/>
<stop offset="0.677083" stop-color="#712CA8"/>
<stop offset="0.859375" stop-color="#C642B0"/>
<stop offset="1" stop-color="#FF846E"/>
</linearGradient>
<linearGradient id="paint8_linear" x1="81.6504" y1="177.776" x2="81.6504" y2="184.361" gradientUnits="userSpaceOnUse">
<stop stop-color="#1E90FF"/>
<stop offset="0.328125" stop-color="#2014AB"/>
<stop offset="0.677083" stop-color="#712CA8"/>
<stop offset="0.859375" stop-color="#C642B0"/>
<stop offset="1" stop-color="#FF846E"/>
</linearGradient>
<linearGradient id="paint9_linear" x1="160.764" y1="36.2804" x2="160.764" y2="255.719" gradientUnits="userSpaceOnUse">
<stop stop-color="#1E90FF"/>
<stop offset="0.328125" stop-color="#2014AB"/>
<stop offset="0.677083" stop-color="#712CA8"/>
<stop offset="0.859375" stop-color="#C642B0"/>
<stop offset="1" stop-color="#FF846E"/>
</linearGradient>
<linearGradient id="paint10_linear" x1="19.6708" y1="248.02" x2="19.6708" y2="255.719" gradientUnits="userSpaceOnUse">
<stop stop-color="#1E90FF"/>
<stop offset="0.328125" stop-color="#2014AB"/>
<stop offset="0.677083" stop-color="#712CA8"/>
<stop offset="0.859375" stop-color="#C642B0"/>
<stop offset="1" stop-color="#FF846E"/>
</linearGradient>
<linearGradient id="paint11_linear" x1="280.346" y1="248.02" x2="280.346" y2="255.719" gradientUnits="userSpaceOnUse">
<stop stop-color="#1E90FF"/>
<stop offset="0.328125" stop-color="#2014AB"/>
<stop offset="0.677083" stop-color="#712CA8"/>
<stop offset="0.859375" stop-color="#C642B0"/>
<stop offset="1" stop-color="#FF846E"/>
</linearGradient>
</defs>
</svg>
