<svg width="54" height="54" viewBox="0 0 54 54" fill="none" xmlns="http://www.w3.org/2000/svg">
<circle cx="27" cy="27" r="25.5" stroke="#71D578" stroke-width="3"/>
<path fill-rule="evenodd" clip-rule="evenodd" d="M26.9999 16.2667C21.0721 16.2667 16.2666 21.0721 16.2666 27C16.2666 32.9279 21.0721 37.7333 26.9999 37.7333C32.9278 37.7333 37.7333 32.9279 37.7333 27C37.7333 21.0721 32.9278 16.2667 26.9999 16.2667ZM14.2666 27C14.2666 19.9676 19.9675 14.2667 26.9999 14.2667C34.0324 14.2667 39.7333 19.9676 39.7333 27C39.7333 34.0324 34.0324 39.7333 26.9999 39.7333C19.9675 39.7333 14.2666 34.0324 14.2666 27Z" fill="#71D578"/>
<path d="M31.8002 28.0666C32.6839 28.0666 33.4002 27.3503 33.4002 26.4666C33.4002 25.583 32.6839 24.8666 31.8002 24.8666C30.9165 24.8666 30.2002 25.583 30.2002 26.4666C30.2002 27.3503 30.9165 28.0666 31.8002 28.0666Z" fill="#71D578"/>
<path d="M22.1996 28.0666C23.0833 28.0666 23.7996 27.3503 23.7996 26.4666C23.7996 25.583 23.0833 24.8666 22.1996 24.8666C21.316 24.8666 20.5996 25.583 20.5996 26.4666C20.5996 27.3503 21.316 28.0666 22.1996 28.0666Z" fill="#71D578"/>
<path fill-rule="evenodd" clip-rule="evenodd" d="M23.0573 31.7454C23.382 31.2987 24.0074 31.1997 24.4542 31.5244C25.0778 31.9776 25.9424 32.4 27.0001 32.4C28.058 32.4 28.9224 31.9776 29.5445 31.5248C29.991 31.1998 30.6165 31.2983 30.9415 31.7449C31.2665 32.1914 31.1679 32.8169 30.7214 33.1419C29.8779 33.7557 28.609 34.4 27.0001 34.4C25.3913 34.4 24.1225 33.7557 23.2784 33.1423C22.8316 32.8176 22.7327 32.1922 23.0573 31.7454Z" fill="#71D578"/>
</svg>
