<svg width="18" height="18" viewBox="0 0 18 18" fill="none" xmlns="http://www.w3.org/2000/svg">
<path d="M9 1.30469C10.0391 1.30469 11.0468 1.50809 11.9952 1.90918C12.9114 2.29672 13.7345 2.85168 14.4414 3.55859C15.1484 4.26555 15.7033 5.08855 16.0909 6.00484C16.492 6.95316 16.6953 7.96086 16.6953 9C16.6953 10.0391 16.492 11.0468 16.0908 11.9952C15.7032 12.9114 15.1483 13.7345 14.4414 14.4414C13.7345 15.1484 12.9114 15.7033 11.9952 16.0909C11.0468 16.492 10.0391 16.6953 9 16.6953C7.96086 16.6953 6.95316 16.492 6.00484 16.0908C5.08855 15.7032 4.26555 15.1483 3.55859 14.4414C2.85168 13.7345 2.29672 12.9114 1.90918 11.9952C1.50809 11.0468 1.30469 10.0391 1.30469 9C1.30469 7.96086 1.50809 6.95316 1.90918 6.00484C2.29672 5.08855 2.85168 4.26555 3.55859 3.55859C4.26555 2.85168 5.08855 2.29672 6.00484 1.90918C6.95316 1.50809 7.96086 1.30469 9 1.30469ZM9 0.679688C4.4048 0.679688 0.679688 4.4048 0.679688 9C0.679688 13.5952 4.4048 17.3203 9 17.3203C13.5952 17.3203 17.3203 13.5952 17.3203 9C17.3203 4.4048 13.5952 0.679688 9 0.679688Z" fill="#1E90FF"/>
<path d="M9 13.1406C8.82742 13.1406 8.6875 13.0007 8.6875 12.8281V7.75C8.6875 7.57742 8.82742 7.4375 9 7.4375C9.17258 7.4375 9.3125 7.57742 9.3125 7.75V12.8281C9.3125 13.0007 9.17258 13.1406 9 13.1406Z" fill="#1E90FF"/>
<path d="M9 6.65625C9.34518 6.65625 9.625 6.37643 9.625 6.03125C9.625 5.68607 9.34518 5.40625 9 5.40625C8.65482 5.40625 8.375 5.68607 8.375 6.03125C8.375 6.37643 8.65482 6.65625 9 6.65625Z" fill="#1E90FF"/>
</svg>
