<svg width="54" height="54" viewBox="0 0 54 54" fill="none" xmlns="http://www.w3.org/2000/svg">
<circle cx="27" cy="27" r="25.5" stroke="#1E90FF" stroke-width="3"/>
<path d="M26.9997 17.4397C26.9997 15.1421 25.1354 13.2797 22.8397 13.2797C20.5402 13.2797 18.6797 15.1421 18.6797 17.4397C18.6797 18.0841 18.8269 18.6909 19.0906 19.2317" stroke="#1E90FF" stroke-width="2" stroke-miterlimit="10" stroke-linejoin="round"/>
<path d="M40.0406 26.3786H38.9994C38.4566 26.3786 38.1994 26.1373 38.1597 25.8909C37.8762 24.1059 36.7165 21.7866 33.8019 20.769C33.7738 19.1543 34.1341 17.9895 34.8355 16.0944C33.2054 16.5034 31.4045 17.3911 30.3382 19.7424C29.137 19.4487 27.8531 19.2899 26.5123 19.2899C23.0019 19.2899 20.3542 20.3549 18.2346 22.0048C16.3203 23.4954 15.1178 25.9914 15.2605 29.3962C15.368 31.9645 17.1568 33.9242 18.529 35.0218C18.7267 35.1779 19.121 35.4282 18.9149 36.0663C18.7082 36.7031 18.337 37.592 18.337 37.592C18.1206 38.1591 18.408 38.7959 18.9744 39.0115L21.0339 39.7898C21.601 40.0061 22.2378 39.72 22.4534 39.1523C22.4534 39.1523 22.7274 38.4387 22.9501 37.8435C23.3731 36.7248 23.6317 37.6323 26.5123 37.6323C29.5056 37.6323 29.8077 37.0487 30.1206 37.9651C30.321 38.5635 30.5706 39.1523 30.5706 39.1523C30.7843 39.72 31.4218 40.0061 31.9907 39.7898L34.0477 39.0115C34.616 38.7959 34.904 38.1591 34.687 37.592L34.3568 36.7184C34.3568 36.7184 34.0208 36.1424 34.7408 35.7514C36.1757 34.9706 37.2573 33.7859 37.9587 32.3229C38.1078 32.0093 38.328 31.5831 38.9994 31.5831H40.0406C40.6141 31.5831 41.0806 31.1165 41.0806 30.5437V27.4211C41.0806 26.8471 40.6141 26.3786 40.0406 26.3786Z" stroke="#1E90FF" stroke-width="2" stroke-miterlimit="10" stroke-linecap="round" stroke-linejoin="round"/>
<path d="M34.3473 28.2301C33.6696 28.2301 33.1211 27.6816 33.1211 27.0051C33.1211 26.3299 33.6696 25.7814 34.3473 25.7814C35.0232 25.7814 35.5697 26.3299 35.5697 27.0051C35.5704 27.681 35.0232 28.2301 34.3473 28.2301Z" fill="#1E90FF"/>
<path d="M15.3686 25.7815C15.3686 25.7815 12.9199 25.2208 12.9199 23.0122C12.9199 22.1066 13.3769 21.2733 14.1762 20.9283" stroke="#1E90FF" stroke-width="2" stroke-miterlimit="10" stroke-linecap="round" stroke-linejoin="round"/>
</svg>
