<svg width="54" height="54" viewBox="0 0 54 54" fill="none" xmlns="http://www.w3.org/2000/svg">
<circle cx="27" cy="27" r="25.5" stroke="#1E90FF" stroke-width="3"/>
<path d="M29.1335 32.6139V30.8176C29.1335 30.8176 30.806 29.2411 30.9276 28.1659C30.9276 28.1659 31.8001 27.5632 31.8001 26.4827C31.8001 25.7339 31.4663 25.6208 31.4663 25.6208C31.4663 25.6208 32.0668 24.4805 32.0668 23.3925C32.0668 21.2112 30.9724 19.5333 29.1335 19.5333C29.1335 19.5333 28.3527 18.4667 27.0001 18.4667C24.1287 18.4667 21.8001 20.1968 21.8001 23.2923C21.8001 24.6011 22.534 25.6208 22.534 25.6208C22.534 25.6208 22.2001 25.784 22.2001 26.4827C22.2001 27.8405 23.0727 28.1659 23.0727 28.1659C23.1943 29.2411 24.8668 30.8176 24.8668 30.8176V32.6139C23.9687 35.3083 18.4668 33.5333 18.4668 39.8H35.5335C35.5335 33.512 30.0316 35.3083 29.1335 32.6139Z" fill="#1E90FF"/>
<path d="M34.1999 23.3925C34.1999 24.1765 34.0165 24.9296 33.8181 25.5141C33.8917 25.8032 33.9333 26.1253 33.9333 26.4827C33.9333 29.1173 31.2666 31.7456 31.2666 31.7456C31.8458 31.9984 33.6986 32.9403 34.4559 33.4H42.9999C42.9999 27.8 38.4527 29.4 37.6666 27V25.4C38.0207 25.2219 38.8634 23.9963 38.9701 23.0384C39.2474 23.0171 39.7999 22.3376 39.7999 21.7307C39.7999 21.1237 39.6079 20.8699 39.4405 20.7717C39.4405 20.7717 39.7999 19.9696 39.7999 19C39.7999 17.0576 39.2751 15.2667 37.6666 15.2667C37.6666 15.2667 37.2047 14.2 35.5333 14.2C33.1621 14.2 31.7061 15.8309 31.3541 17.9685C33.0778 18.8923 34.1999 20.8848 34.1999 23.3925Z" fill="#1E90FF"/>
<path d="M22.7333 31.6848C22.1541 31.0661 21.3179 29.9973 21.0139 29.1877C20.3483 28.8539 19.7861 28.4603 19.5333 27.8011V26.7259C19.736 26.7259 20.3344 26.6789 20.5445 26.632C20.0688 25.8992 19.6667 24.2288 19.6667 23.2923C19.6667 20.9104 20.6917 18.9509 22.3931 17.7232C21.88 15.7595 20.7408 14.2 18.0411 14.2C17.0661 14.2 16.3333 15.2667 16.3333 15.2667C10.7493 15.2667 13.8309 24.1787 12.1904 25.4928C12.1904 25.4928 13.1952 26.7376 16.3333 26.7376V27.8021C15.4661 30.0613 11 29.2261 11 33.4H19.5579C20.3088 32.9456 22.7333 31.6848 22.7333 31.6848Z" fill="#1E90FF"/>
</svg>
