<svg width="46" height="8" viewBox="0 0 46 8" fill="none" xmlns="http://www.w3.org/2000/svg">
<path fill-rule="evenodd" clip-rule="evenodd" d="M17 4H0.5C0.223858 4 0 4.22386 0 4.5C0 4.77614 0.223858 5 0.5 5H17V4ZM29 5H45.5C45.7761 5 46 4.77614 46 4.5C46 4.22386 45.7761 4 45.5 4H29V5Z" fill="#1E90FF"/>
<path d="M25.3966 3.9619C25.3966 3.79426 25.2625 3.65845 25.0971 3.65845H23.264V1.82807V1.82801C23.264 1.65981 23.1275 1.52338 22.9594 1.52338C22.7912 1.52338 22.6547 1.65981 22.6547 1.82801V3.96071C22.6547 4.12898 22.7912 4.2654 22.9594 4.2654H25.0973C25.2625 4.2654 25.3966 4.12954 25.3966 3.9619ZM26.3114 3.95998C26.3114 5.81125 24.8109 7.312 22.96 7.312C21.1091 7.312 19.6086 5.81125 19.6086 3.95998C19.6086 2.10871 21.1091 0.607964 22.96 0.607964C24.8109 0.607964 26.3114 2.10871 26.3114 3.95998ZM26.92 3.95998C26.92 1.77292 25.147 0 22.96 0C20.7729 0 19 1.77292 19 3.95998C19 6.14704 20.7729 7.91996 22.96 7.91996C25.147 7.91996 26.92 6.14704 26.92 3.95998Z" fill="#1E90FF"/>
</svg>
