<svg width="54" height="54" viewBox="0 0 54 54" fill="none" xmlns="http://www.w3.org/2000/svg">
<circle cx="27" cy="27" r="25.5" stroke="#1E90FF" stroke-width="3"/>
<path d="M36.5865 26.8476C36.5865 26.177 36.0499 25.6338 35.3883 25.6338H28.056V18.3123V18.3121C28.056 17.6392 27.51 17.0935 26.8377 17.0935C26.1648 17.0935 25.6189 17.6392 25.6189 18.3121V26.8429C25.6189 27.5159 26.1648 28.0616 26.8377 28.0616H35.389C36.0499 28.0616 36.5865 27.5182 36.5865 26.8476ZM40.2457 26.8399C40.2457 34.245 34.2436 40.248 26.8401 40.248C19.4362 40.248 13.4346 34.245 13.4346 26.8399C13.4346 19.4348 19.4362 13.4319 26.8401 13.4319C34.2436 13.4319 40.2457 19.4348 40.2457 26.8399ZM42.6798 26.8399C42.6798 18.0917 35.5882 11 26.8401 11C18.0917 11 11 18.0917 11 26.8399C11 35.5882 18.0917 42.6798 26.8401 42.6798C35.5882 42.6798 42.6798 35.5882 42.6798 26.8399Z" fill="#1E90FF"/>
</svg>
