<svg width="19" height="19" viewBox="0 0 19 19" fill="none" xmlns="http://www.w3.org/2000/svg">
<g clip-path="url(#clip0)">
<circle cx="9.5" cy="9.5" r="9.25" stroke="#1E90FF" stroke-width="0.5"/>
<path d="M14.4476 13.6706H13.2845C12.8669 13.6706 12.6532 13.4375 12.2992 13.0513C12.1587 12.8978 11.9837 12.707 11.7538 12.4814C11.289 12.0426 10.9463 11.8107 10.7627 11.8107C10.7405 11.8107 10.7239 11.8112 10.7117 11.812C10.6906 11.9132 10.693 12.1782 10.6958 12.4797C10.6971 12.6275 10.6986 12.795 10.6986 12.9915C10.6986 13.5551 10.2703 13.6706 9.62719 13.6706C8.96699 13.6706 8.27635 13.4739 7.62995 13.1018C6.96913 12.7214 6.36485 12.1614 5.8824 11.4823C4.474 9.54647 4 7.9776 4 7.55903C4 7.20377 4.23288 7 4.63896 7H5.80209C6.29464 7 6.44822 7.30981 6.55352 7.6002C6.55384 7.60105 6.55412 7.60192 6.55444 7.60276C6.80552 8.32123 7.14819 9.04082 7.51937 9.62901C7.87042 10.1853 8.113 10.4074 8.21704 10.4725C8.22184 10.4355 8.22601 10.3785 8.22601 10.2926V8.61766C8.20239 8.21884 8.07145 8.05948 7.95587 7.91877C7.86588 7.80924 7.76392 7.68512 7.76392 7.49703C7.76392 7.258 7.96896 7 8.30016 7H10.1288C10.3291 7 10.4803 7.06648 10.5782 7.19758C10.6844 7.33981 10.6967 7.52727 10.6967 7.65589V9.9168C10.6967 9.94812 10.6994 9.97273 10.703 9.99129C10.7597 9.96232 10.8483 9.89085 11.0108 9.7317C11.8091 8.85351 12.3872 7.48342 12.393 7.46964C12.5248 7.16176 12.7762 7 13.1206 7H14.2837C14.5256 7 14.7016 7.07011 14.8069 7.20832C14.876 7.29907 14.9421 7.4602 14.8679 7.71427C14.7969 8.02312 14.5127 8.55667 13.9995 9.34467C13.7505 9.7269 13.3906 10.248 13.2708 10.4067L13.2713 10.407C13.2492 10.4419 13.1976 10.5236 13.1962 10.5469C13.1962 10.5469 13.1992 10.5734 13.2569 10.6461C13.2573 10.6467 13.2578 10.6473 13.2582 10.6479C13.276 10.668 13.3473 10.7396 13.4163 10.8088C14.1416 11.536 14.9063 12.3507 15.0791 12.8787C15.0797 12.8805 15.0802 12.8823 15.0807 12.884C15.1642 13.1615 15.0904 13.3396 15.0138 13.4402C14.9337 13.5453 14.7705 13.6706 14.4476 13.6706ZM10.7627 11.3397C10.9974 11.3397 11.3384 11.4352 12.0884 12.1436C12.0895 12.1447 12.0906 12.1457 12.0917 12.1468C12.3314 12.3819 12.5115 12.5784 12.6563 12.7363C12.9928 13.1035 13.0889 13.1996 13.2845 13.1996H14.4477C14.5664 13.1996 14.6184 13.1725 14.6293 13.1582C14.6375 13.1474 14.6461 13.1048 14.6211 13.02C14.4569 12.5256 13.4157 11.4816 13.0732 11.1381C12.9406 11.0052 12.8992 10.9634 12.8757 10.9325C12.6185 10.6059 12.7179 10.3888 12.8633 10.1588C12.8666 10.1536 12.8701 10.1485 12.8738 10.1435C13.1023 9.83287 14.2807 8.15141 14.4006 7.6062C14.4019 7.60041 14.4033 7.59469 14.405 7.58901C14.4209 7.53638 14.4219 7.50442 14.4203 7.49084C14.4074 7.48474 14.369 7.47098 14.2837 7.47098H13.1206C12.9478 7.47098 12.8838 7.53958 12.8363 7.65029C12.8123 7.70779 12.2192 9.11286 11.3642 10.0506C11.3612 10.0538 11.3582 10.057 11.355 10.0601C11.0593 10.3503 10.8862 10.4797 10.6423 10.4797C10.4307 10.4797 10.2166 10.2864 10.2166 9.9168V7.65589C10.2166 7.53014 10.1981 7.48813 10.1925 7.47828C10.1862 7.47602 10.1679 7.47096 10.1288 7.47096H8.30021C8.24985 7.47096 8.24402 7.49804 8.24397 7.49832C8.24404 7.51893 8.28566 7.56958 8.32971 7.62321C8.46708 7.79043 8.67467 8.04311 8.70578 8.59805C8.70602 8.60236 8.70614 8.60667 8.70614 8.61098V10.2926C8.70614 10.5105 8.70614 10.964 8.25086 10.964C8.14226 10.964 7.81176 10.964 7.15144 9.93997C6.75252 9.32131 6.36958 8.52554 6.10076 7.75671C5.99697 7.47098 5.93982 7.47098 5.80211 7.47098H4.63898C4.53841 7.47098 4.49544 7.4898 4.48826 7.49642C4.48843 7.49642 4.4801 7.51081 4.4801 7.55906C4.4801 7.74328 4.8109 9.19916 6.27393 11.2098C6.27446 11.2105 6.27498 11.2113 6.27551 11.212C7.15938 12.4566 8.41236 13.1996 9.62719 13.1996C10.0128 13.1996 10.1434 13.1516 10.1869 13.123C10.2017 13.1133 10.2185 13.1022 10.2185 12.9915C10.2185 12.7971 10.217 12.6307 10.2157 12.4839C10.2099 11.8405 10.2079 11.6238 10.3679 11.4654C10.4795 11.3549 10.6236 11.3397 10.7627 11.3397Z" fill="#1E90FF"/>
</g>
<defs>
<clipPath id="clip0">
<rect width="19" height="19" fill="white"/>
</clipPath>
</defs>
</svg>
