<svg width="23" height="23" viewBox="0 0 23 23" fill="none" xmlns="http://www.w3.org/2000/svg">
<g clip-path="url(#clip0)">
<circle cx="11.5" cy="11.5" r="11" stroke="#1E90FF"/>
<path d="M17.7469 16.7771H16.2164C15.667 16.7771 15.3858 16.4704 14.9201 15.9622C14.7351 15.7603 14.5049 15.5092 14.2024 15.2123C13.5908 14.635 13.1399 14.3298 12.8983 14.3298C12.8691 14.3298 12.8473 14.3306 12.8311 14.3316C12.8035 14.4647 12.8066 14.8134 12.8102 15.2101C12.812 15.4046 12.814 15.625 12.814 15.8835C12.814 16.6251 12.2504 16.7771 11.4042 16.7771C10.5355 16.7771 9.62677 16.5183 8.77625 16.0287C7.90674 15.5281 7.11165 14.7913 6.47684 13.8978C4.62369 11.3506 4 9.28631 4 8.73557C4 8.26812 4.30643 8 4.84073 8H6.37116C7.01927 8 7.22134 8.40765 7.3599 8.78973C7.36031 8.79085 7.36069 8.792 7.3611 8.79311C7.69147 9.73846 8.14236 10.6853 8.63074 11.4592C9.09266 12.1912 9.41185 12.4835 9.54873 12.5691C9.55505 12.5204 9.56054 12.4454 9.56054 12.3324V10.1285C9.52946 9.60373 9.35717 9.39405 9.2051 9.20891C9.08669 9.06479 8.95252 8.90147 8.95252 8.65399C8.95252 8.33948 9.22231 8 9.65811 8H12.0642C12.3277 8 12.5267 8.08747 12.6555 8.25997C12.7952 8.44712 12.8114 8.69377 12.8114 8.86302V11.8379C12.8114 11.8791 12.815 11.9115 12.8198 11.9359C12.8943 11.8978 13.0109 11.8037 13.2247 11.5943C14.2751 10.4388 15.0358 8.63608 15.0434 8.61795C15.2169 8.21284 15.5476 8 16.0008 8H17.5312C17.8495 8 18.0811 8.09224 18.2196 8.2741C18.3105 8.39352 18.3975 8.60552 18.2999 8.93983C18.2064 9.34621 17.8325 10.0483 17.1572 11.0851C16.8297 11.588 16.3561 12.2736 16.1985 12.4826L16.1991 12.4829C16.1701 12.5288 16.1021 12.6364 16.1003 12.6669C16.1003 12.6669 16.1043 12.7018 16.1801 12.7976C16.1807 12.7983 16.1813 12.7991 16.1819 12.7998C16.2052 12.8264 16.2991 12.9205 16.3899 13.0115C17.3442 13.9685 18.3504 15.0404 18.5777 15.7352C18.5785 15.7375 18.5792 15.7398 18.5799 15.7422C18.6898 16.1073 18.5927 16.3416 18.4919 16.4739C18.3865 16.6122 18.1717 16.7771 17.7469 16.7771ZM12.8983 13.7101C13.2071 13.7101 13.6558 13.8358 14.6427 14.7679C14.6441 14.7693 14.6456 14.7707 14.647 14.7721C14.9623 15.0815 15.1994 15.3401 15.3898 15.5478C15.8326 16.031 15.9591 16.1573 16.2165 16.1573H17.7469C17.9031 16.1573 17.9715 16.1217 17.9859 16.1029C17.9967 16.0887 18.0081 16.0326 17.9751 15.921C17.759 15.2705 16.3891 13.8968 15.9384 13.4449C15.7639 13.27 15.7095 13.215 15.6785 13.1743C15.3401 12.7445 15.4709 12.459 15.6622 12.1563C15.6665 12.1494 15.6712 12.1427 15.676 12.1362C15.9768 11.7275 17.5272 9.51502 17.6849 8.79764C17.6867 8.79001 17.6886 8.78248 17.6909 8.77502C17.7118 8.70576 17.713 8.66371 17.7109 8.64584C17.694 8.63781 17.6434 8.61972 17.5312 8.61972H16.0008C15.7735 8.61972 15.6892 8.70998 15.6267 8.85564C15.5951 8.93131 14.8148 10.7801 13.6897 12.0139C13.6858 12.0182 13.6818 12.0224 13.6777 12.0264C13.2885 12.4083 13.0607 12.5786 12.7398 12.5786C12.4615 12.5786 12.1797 12.3242 12.1797 11.8379V8.86302C12.1797 8.69755 12.1554 8.64227 12.148 8.62932C12.1397 8.62635 12.1156 8.61968 12.0642 8.61968H9.65817C9.59191 8.61968 9.58423 8.65532 9.58417 8.65569C9.58426 8.6828 9.63903 8.74945 9.69699 8.82001C9.87774 9.04004 10.1509 9.37251 10.1918 10.1027C10.1921 10.1084 10.1923 10.114 10.1923 10.1197V12.3324C10.1923 12.6191 10.1923 13.2158 9.59323 13.2158C9.45035 13.2158 9.01547 13.2158 8.14662 11.8684C7.62173 11.0544 7.11787 10.0073 6.76416 8.99567C6.62759 8.61972 6.55239 8.61972 6.3712 8.61972H4.84076C4.70843 8.61972 4.65189 8.64447 4.64245 8.65318C4.64267 8.65318 4.63171 8.67211 4.63171 8.7356C4.63171 8.978 5.06697 10.8936 6.99201 13.5392C6.99271 13.5401 6.9934 13.5411 6.99409 13.5421C8.15708 15.1797 9.80573 16.1574 11.4042 16.1574C11.9116 16.1574 12.0835 16.0942 12.1407 16.0566C12.1602 16.0437 12.1823 16.0292 12.1823 15.8835C12.1823 15.6278 12.1803 15.4088 12.1785 15.2156C12.1709 14.3691 12.1683 14.084 12.3788 13.8756C12.5257 13.7301 12.7153 13.7101 12.8983 13.7101Z" fill="#1E90FF" stroke="#1E90FF" stroke-width="0.5"/>
</g>
<defs>
<clipPath id="clip0">
<rect width="23" height="23" fill="white"/>
</clipPath>
</defs>
</svg>
