<svg width="259" height="246" viewBox="0 0 259 246" fill="none" xmlns="http://www.w3.org/2000/svg">
<g clip-path="url(#clip0)">
<path d="M80.0904 207.667C79.2521 207.667 78.4482 208 77.8554 208.594C77.2627 209.187 76.9297 209.991 76.9297 210.83C76.9297 211.669 77.2627 212.474 77.8554 213.067C78.4482 213.66 79.2521 213.993 80.0904 213.993H144.348C145.186 213.993 145.99 213.66 146.583 213.067C147.175 212.474 147.508 211.669 147.508 210.83C147.508 209.991 147.175 209.187 146.583 208.594C145.99 208 145.186 207.667 144.348 207.667H80.0904Z" fill="url(#paint0_linear)"/>
<path d="M19.8144 213.7C20.5972 213.699 21.352 213.408 21.9326 212.883C22.5132 212.357 22.8782 211.635 22.957 210.855C23.0359 210.076 22.8229 209.295 22.3593 208.664C21.8957 208.032 21.2146 207.596 20.4477 207.438C18.6433 207.071 16.9579 206.263 15.5421 205.085C14.1264 203.907 13.0245 202.396 12.335 200.687C11.6454 198.978 11.3898 197.125 11.5908 195.294C11.7919 193.462 12.4434 191.709 13.4872 190.191C14.2964 190.713 15.0939 191.271 15.9149 191.863C18.7648 193.923 21.8903 196.183 26.7984 197.18C26.8394 215.425 26.7984 219.087 26.7515 219.615C26.8303 218.835 27.1974 218.111 27.7808 217.587C28.3643 217.063 29.1222 216.775 29.9063 216.781C29.4931 216.782 29.0841 216.864 28.703 217.024C28.3218 217.184 27.976 217.417 27.6855 217.711C27.3949 218.005 27.1654 218.354 27.0101 218.737C26.8549 219.12 26.7769 219.531 26.7808 219.944C26.7797 220.105 26.7934 220.266 26.8219 220.425V228.97C26.8211 230.158 27.0543 231.334 27.5081 232.431C27.962 233.529 28.6276 234.526 29.4668 235.366C30.3061 236.206 31.3026 236.872 32.3993 237.326C33.4959 237.78 34.6713 238.014 35.8582 238.013H36.0283C38.4176 237.932 40.6813 236.922 42.338 235.197C43.9948 233.472 44.9141 231.169 44.9005 228.776V225.091C44.9005 224.565 45.1093 224.06 45.481 223.688C45.8527 223.316 46.3568 223.107 46.8825 223.107H47.4689C47.7297 223.106 47.988 223.157 48.2292 223.256C48.4703 223.356 48.6895 223.502 48.8742 223.686C49.0589 223.87 49.2054 224.089 49.3054 224.33C49.4053 224.571 49.4568 224.83 49.4568 225.091C49.4568 228.186 50.6856 231.155 52.8729 233.344C55.0603 235.533 58.0269 236.763 61.1202 236.763C64.2136 236.763 67.1802 235.533 69.3675 233.344C71.5549 231.155 72.7837 228.186 72.7837 225.091V199.41C72.7837 198.571 72.4507 197.767 71.8579 197.174C71.2652 196.58 70.4613 196.247 69.623 196.247C68.7847 196.247 67.9808 196.58 67.3881 197.174C66.7953 197.767 66.4623 198.571 66.4623 199.41V225.091C66.4623 226.509 65.8995 227.868 64.8977 228.871C63.8958 229.874 62.537 230.437 61.1202 230.437C59.7034 230.437 58.3447 229.874 57.3428 228.871C56.341 227.868 55.7782 226.509 55.7782 225.091C55.7751 222.892 54.9025 220.783 53.351 219.226C51.7996 217.669 49.6954 216.79 47.4982 216.781H46.9118C44.7101 216.782 42.599 217.658 41.0422 219.216C39.4853 220.775 38.61 222.887 38.6084 225.091V228.776C38.6357 229.517 38.3717 230.24 37.8728 230.788C37.374 231.337 36.6802 231.668 35.9403 231.71C35.213 231.709 34.5131 231.433 33.9818 230.936C33.7246 230.682 33.5206 230.38 33.3816 230.046C33.2427 229.712 33.1716 229.355 33.1725 228.993V219.944C33.1701 219.725 33.1465 219.507 33.1022 219.293C33.1667 217.914 33.1667 215.707 33.1725 212.022C33.1725 207.996 33.1725 202.873 33.1725 197.691C40.9423 197.491 45.1057 194.51 48.7824 191.863C52.248 189.363 55.2328 187.204 61.5073 187.204C67.7817 187.204 70.9424 189.375 74.5722 191.899C78.3955 194.545 82.729 197.55 90.5398 197.697H90.9151H91.2904C99.1774 197.538 103.37 194.522 107.076 191.858C110.542 189.363 113.527 187.204 119.807 187.204C126.087 187.204 129.066 189.363 132.532 191.863C134.819 193.507 137.411 195.385 140.958 196.529C141.755 196.789 142.623 196.721 143.37 196.341C144.117 195.961 144.683 195.299 144.943 194.501C145.203 193.704 145.135 192.835 144.755 192.088C144.375 191.34 143.714 190.774 142.917 190.514C140.301 189.663 138.325 188.237 136.226 186.729C132.426 183.988 128.116 180.86 119.807 180.86C111.498 180.86 107.188 183.964 103.388 186.729C100.01 189.158 97.0899 191.259 91.1086 191.376H90.7275C84.7638 191.259 81.7087 189.146 78.1727 186.682C74.2438 183.959 69.7872 180.872 61.5131 180.872C53.2391 180.872 48.8939 183.982 45.094 186.74C41.6284 189.234 38.6436 191.394 32.3633 191.394C26.083 191.394 23.1041 189.234 19.6385 186.74C18.4364 185.872 17.1873 184.98 15.78 184.146C13.4663 182.767 10.924 181.815 8.2741 181.335C7.71852 181.227 7.21867 180.926 6.86179 180.487C6.50491 180.047 6.31365 179.496 6.3214 178.929C6.3214 178.09 5.9884 177.286 5.39566 176.693C4.80291 176.099 3.99898 175.766 3.16072 175.766C2.32245 175.766 1.51852 176.099 0.925776 176.693C0.333033 177.286 3.35021e-05 178.09 3.35021e-05 178.929C-0.00561428 180.973 0.702975 182.954 2.00308 184.529C3.30319 186.104 5.11294 187.175 7.1189 187.556C7.27723 187.585 7.42969 187.632 7.58802 187.667C6.19226 190.067 5.38721 192.765 5.2394 195.538C5.09159 198.311 5.60526 201.079 6.73796 203.614C7.87067 206.149 9.58989 208.378 11.7535 210.116C13.9172 211.855 16.4632 213.053 19.1811 213.612C19.3884 213.664 19.6007 213.694 19.8144 213.7V213.7Z" fill="url(#paint1_linear)"/>
<path d="M146.6 239.674H26.8103C24.284 239.671 21.8621 238.665 20.0757 236.877C18.2894 235.089 17.2844 232.666 17.2813 230.137V221.335C17.2813 220.496 16.9483 219.691 16.3556 219.098C15.7628 218.505 14.9589 218.172 14.1206 218.172C13.2824 218.172 12.4784 218.505 11.8857 219.098C11.293 219.691 10.96 220.496 10.96 221.335V230.137C10.9693 234.337 12.6403 238.362 15.6075 241.331C18.5747 244.301 22.5964 245.973 26.7927 245.982H146.6C147.438 245.982 148.242 245.649 148.834 245.056C149.427 244.463 149.76 243.658 149.76 242.819C149.76 241.98 149.427 241.176 148.834 240.583C148.242 239.989 147.438 239.656 146.6 239.656V239.674Z" fill="url(#paint2_linear)"/>
<path d="M88.5458 130.561C88.1197 130.543 87.6943 130.611 87.2951 130.762C86.896 130.912 86.5314 131.142 86.2234 131.437C85.9154 131.733 85.6703 132.087 85.5028 132.48C85.3354 132.872 85.249 133.295 85.249 133.722C85.249 134.148 85.3354 134.571 85.5028 134.963C85.6703 135.356 85.9154 135.711 86.2234 136.006C86.5314 136.301 86.896 136.531 87.2951 136.681C87.6943 136.832 88.1197 136.9 88.5458 136.882H91.0322C91.4583 136.9 91.8837 136.832 92.2829 136.681C92.682 136.531 93.0465 136.301 93.3546 136.006C93.6626 135.711 93.9077 135.356 94.0752 134.963C94.2426 134.571 94.3289 134.148 94.3289 133.722C94.3289 133.295 94.2426 132.872 94.0752 132.48C93.9077 132.087 93.6626 131.733 93.3546 131.437C93.0465 131.142 92.682 130.912 92.2829 130.762C91.8837 130.611 91.4583 130.543 91.0322 130.561H88.5458Z" fill="url(#paint3_linear)"/>
<path d="M103.071 152.286C102.233 152.286 101.429 152.62 100.836 153.213C100.243 153.806 99.9102 154.611 99.9102 155.45C99.9102 156.289 100.243 157.093 100.836 157.686C101.429 158.279 102.233 158.613 103.071 158.613H105.551C105.966 158.613 106.377 158.531 106.761 158.372C107.144 158.213 107.493 157.98 107.786 157.686C108.08 157.393 108.313 157.044 108.471 156.66C108.63 156.276 108.712 155.865 108.712 155.45C108.712 155.034 108.63 154.623 108.471 154.239C108.313 153.855 108.08 153.507 107.786 153.213C107.493 152.919 107.144 152.686 106.761 152.527C106.377 152.368 105.966 152.286 105.551 152.286H103.071Z" fill="url(#paint4_linear)"/>
<path d="M74.0445 152.286C73.2062 152.286 72.4023 152.62 71.8095 153.213C71.2168 153.806 70.8838 154.611 70.8838 155.45C70.8838 156.289 71.2168 157.093 71.8095 157.686C72.4023 158.279 73.2062 158.613 74.0445 158.613H76.5308C76.9459 158.613 77.3569 158.531 77.7403 158.372C78.1238 158.213 78.4722 157.98 78.7657 157.686C79.0592 157.393 79.2921 157.044 79.4509 156.66C79.6097 156.276 79.6915 155.865 79.6915 155.45C79.6915 155.034 79.6097 154.623 79.4509 154.239C79.2921 153.855 79.0592 153.507 78.7657 153.213C78.4722 152.919 78.1238 152.686 77.7403 152.527C77.3569 152.368 76.9459 152.286 76.5308 152.286H74.0445Z" fill="url(#paint5_linear)"/>
<path d="M59.5312 130.561C59.105 130.543 58.6796 130.611 58.2805 130.762C57.8813 130.912 57.5168 131.142 57.2088 131.437C56.9007 131.733 56.6556 132.087 56.4882 132.48C56.3207 132.872 56.2344 133.295 56.2344 133.722C56.2344 134.148 56.3207 134.571 56.4882 134.963C56.6556 135.356 56.9007 135.711 57.2088 136.006C57.5168 136.301 57.8813 136.531 58.2805 136.681C58.6796 136.832 59.105 136.9 59.5312 136.882H62.0175C62.4436 136.9 62.8691 136.832 63.2682 136.681C63.6673 136.531 64.0319 136.301 64.3399 136.006C64.6479 135.711 64.893 135.356 65.0605 134.963C65.228 134.571 65.3143 134.148 65.3143 133.722C65.3143 133.295 65.228 132.872 65.0605 132.48C64.893 132.087 64.6479 131.733 64.3399 131.437C64.0319 131.142 63.6673 130.912 63.2682 130.762C62.8691 130.611 62.4436 130.543 62.0175 130.561H59.5312Z" fill="url(#paint6_linear)"/>
<path d="M45.024 152.286C44.1857 152.286 43.3818 152.62 42.789 153.213C42.1963 153.806 41.8633 154.611 41.8633 155.45C41.8633 156.289 42.1963 157.093 42.789 157.686C43.3818 158.279 44.1857 158.613 45.024 158.613H47.4986C47.9136 158.613 48.3246 158.531 48.7081 158.372C49.0916 158.213 49.44 157.98 49.7335 157.686C50.027 157.393 50.2598 157.044 50.4186 156.66C50.5775 156.276 50.6592 155.865 50.6592 155.45C50.6592 155.034 50.5775 154.623 50.4186 154.239C50.2598 153.855 50.027 153.507 49.7335 153.213C49.44 152.919 49.0916 152.686 48.7081 152.527C48.3246 152.368 47.9136 152.286 47.4986 152.286H45.024Z" fill="url(#paint7_linear)"/>
<path d="M117.632 130.561C117.206 130.543 116.78 130.611 116.381 130.762C115.982 130.912 115.617 131.142 115.309 131.437C115.001 131.733 114.756 132.087 114.589 132.48C114.421 132.872 114.335 133.295 114.335 133.722C114.335 134.148 114.421 134.571 114.589 134.963C114.756 135.356 115.001 135.711 115.309 136.006C115.617 136.301 115.982 136.531 116.381 136.681C116.78 136.832 117.206 136.9 117.632 136.882H120.118C120.544 136.9 120.97 136.832 121.369 136.681C121.768 136.531 122.132 136.301 122.44 136.006C122.748 135.711 122.994 135.356 123.161 134.963C123.329 134.571 123.415 134.148 123.415 133.722C123.415 133.295 123.329 132.872 123.161 132.48C122.994 132.087 122.748 131.733 122.44 131.437C122.132 131.142 121.768 130.912 121.369 130.762C120.97 130.611 120.544 130.543 120.118 130.561H117.632Z" fill="url(#paint8_linear)"/>
<path d="M132.198 152.286C131.36 152.286 130.556 152.62 129.963 153.213C129.37 153.806 129.037 154.611 129.037 155.45C129.037 156.289 129.37 157.093 129.963 157.686C130.556 158.279 131.36 158.613 132.198 158.613H134.684C135.522 158.613 136.326 158.279 136.919 157.686C137.512 157.093 137.845 156.289 137.845 155.45C137.845 154.611 137.512 153.806 136.919 153.213C136.326 152.62 135.522 152.286 134.684 152.286H132.198Z" fill="url(#paint9_linear)"/>
<path d="M9.48242 173.284C9.48242 174.123 9.81542 174.927 10.4082 175.52C11.0009 176.114 11.8048 176.447 12.6431 176.447H138.343C139.182 176.447 139.985 176.114 140.578 175.52C141.171 174.927 141.504 174.123 141.504 173.284C141.504 172.445 141.171 171.64 140.578 171.047C139.985 170.454 139.182 170.121 138.343 170.121H15.9797C16.7968 157.498 22.3793 145.658 31.5956 137.001C40.8119 128.344 52.9725 123.518 65.6124 123.502H114.184C120.262 123.487 126.29 124.591 131.969 126.759C132.723 126.961 133.524 126.877 134.22 126.523C134.915 126.17 135.456 125.571 135.737 124.843C136.018 124.114 136.019 123.308 135.742 122.578C135.464 121.848 134.927 121.247 134.233 120.89C127.833 118.437 121.037 117.183 114.184 117.193H65.6124C50.8707 117.212 36.7282 123.034 26.2408 133.402C15.7534 143.77 9.7632 157.851 9.56452 172.603C9.51154 172.826 9.484 173.055 9.48242 173.284V173.284Z" fill="url(#paint10_linear)"/>
<path d="M196.05 93.2498H198.496C199.334 93.2498 200.138 92.9165 200.731 92.3233C201.323 91.7301 201.656 90.9256 201.656 90.0867C201.656 89.2478 201.323 88.4432 200.731 87.85C200.138 87.2568 199.334 86.9236 198.496 86.9236H196.05C195.212 86.9236 194.408 87.2568 193.815 87.85C193.223 88.4432 192.89 89.2478 192.89 90.0867C192.89 90.9256 193.223 91.7301 193.815 92.3233C194.408 92.9165 195.212 93.2498 196.05 93.2498Z" fill="url(#paint11_linear)"/>
<path d="M252.667 87.44C250.234 70.3217 241.954 57.5871 228.003 49.5767C217.941 43.7963 207.356 42.0651 201.657 41.5428V36.0381C201.662 31.0501 203.394 26.218 206.559 22.3646L220.715 5.17591C221.168 4.52117 221.359 3.71939 221.248 2.93028C221.138 2.14118 220.735 1.42268 220.119 0.91791C219.502 0.41314 218.719 0.159152 217.924 0.206541C217.129 0.253931 216.382 0.599219 215.83 1.17362L201.68 18.3682C197.582 23.3529 195.339 29.6065 195.335 36.0616V57.9803C195.335 58.8192 195.668 59.6238 196.261 60.217C196.854 60.8102 197.658 61.1434 198.496 61.1434C199.334 61.1434 200.138 60.8102 200.731 60.217C201.324 59.6238 201.657 58.8192 201.657 57.9803V47.8807C213.49 49.0544 240.916 55.1693 246.223 86.9236H211.103C210.265 86.9236 209.461 87.2568 208.869 87.85C208.276 88.4432 207.943 89.2478 207.943 90.0867C207.943 90.9256 208.276 91.7301 208.869 92.3233C209.461 92.9165 210.265 93.2498 211.103 93.2498H249.665C250.059 93.2482 250.45 93.3244 250.815 93.474C251.18 93.6236 251.512 93.8436 251.791 94.1215C252.071 94.3994 252.294 94.7298 252.446 95.0937C252.598 95.4577 252.678 95.8481 252.679 96.2427V107.833H141.504V96.2427C141.504 95.4458 141.82 94.6816 142.383 94.1181C142.946 93.5546 143.71 93.238 144.506 93.238H183.05C183.888 93.238 184.692 92.9048 185.285 92.3116C185.878 91.7184 186.211 90.9138 186.211 90.0749C186.211 89.236 185.878 88.4315 185.285 87.8383C184.692 87.2451 183.888 86.9118 183.05 86.9118H147.984C152.188 61.6129 170.296 52.3466 185.103 49.0661C185.921 48.8848 186.635 48.3854 187.086 47.6777C187.537 46.9701 187.688 46.1122 187.507 45.2927C187.326 44.4733 186.827 43.7594 186.12 43.3082C185.412 42.8569 184.555 42.7053 183.736 42.8866C169.757 45.9852 146.013 55.8912 141.516 87.4165C139.677 88.0421 138.079 89.2264 136.944 90.8044C135.81 92.3824 135.196 94.2754 135.188 96.2192V110.973C135.188 111.811 135.521 112.616 136.114 113.209C136.707 113.802 137.511 114.136 138.349 114.136H146.658L160.345 242.725C160.427 243.502 160.794 244.221 161.374 244.743C161.955 245.265 162.708 245.554 163.488 245.554H230.707C231.487 245.553 232.239 245.263 232.819 244.741C233.399 244.219 233.766 243.501 233.85 242.725L247.536 114.136H255.84C256.678 114.136 257.482 113.802 258.075 113.209C258.667 112.616 259 111.811 259 110.973V96.2427C258.992 94.2981 258.378 92.4047 257.242 90.8266C256.107 89.2485 254.507 88.0645 252.667 87.44V87.44ZM232.308 197.503H161.875L157.958 160.702H236.225L232.308 197.503ZM227.863 239.263H166.32L162.55 203.829H231.627L227.863 239.263ZM236.905 154.376H157.29L153.009 114.171H241.18L236.905 154.376Z" fill="url(#paint12_linear)"/>
<path d="M164.302 136.894C165.815 136.788 167.404 136.753 168.994 136.788H169.076C169.152 136.759 178.083 136.788 189.488 140.415C193.444 141.672 197.57 142.313 201.72 142.316C206.603 142.326 211.443 141.414 215.987 139.628C221.013 137.629 226.187 136.028 231.463 134.84C231.872 134.753 232.259 134.586 232.604 134.349C232.948 134.111 233.242 133.807 233.468 133.455C233.694 133.103 233.848 132.71 233.921 132.298C233.994 131.886 233.985 131.464 233.894 131.055C233.803 130.647 233.631 130.261 233.39 129.919C233.149 129.577 232.842 129.287 232.488 129.065C232.133 128.842 231.738 128.693 231.326 128.624C230.913 128.556 230.491 128.57 230.084 128.666C224.488 129.927 218.998 131.624 213.665 133.742C206.541 136.505 198.684 136.733 191.412 134.388C179.408 130.573 169.961 130.468 169.128 130.462C167.328 130.421 165.551 130.462 163.851 130.585C163.431 130.606 163.019 130.711 162.64 130.893C162.26 131.076 161.922 131.332 161.643 131.647C161.364 131.963 161.151 132.331 161.016 132.729C160.881 133.128 160.827 133.55 160.857 133.97C160.887 134.39 161 134.8 161.191 135.175C161.381 135.551 161.644 135.884 161.965 136.157C162.286 136.429 162.658 136.634 163.06 136.761C163.461 136.887 163.883 136.933 164.302 136.894V136.894Z" fill="url(#paint13_linear)"/>
<path d="M197.094 194.199C199.036 194.238 200.967 193.889 202.773 193.172C204.579 192.455 206.224 191.384 207.611 190.023C208.999 188.662 210.101 187.038 210.853 185.245C211.606 183.453 211.994 181.528 211.994 179.584C211.994 177.639 211.606 175.714 210.853 173.922C210.101 172.129 208.999 170.505 207.611 169.144C206.224 167.783 204.579 166.713 202.773 165.996C200.967 165.279 199.036 164.929 197.094 164.968C196.255 164.968 195.452 165.302 194.859 165.895C194.266 166.488 193.933 167.292 193.933 168.131C193.933 168.97 194.266 169.775 194.859 170.368C195.452 170.961 196.255 171.294 197.094 171.294C198.733 171.292 200.337 171.777 201.701 172.687C203.066 173.597 204.13 174.892 204.758 176.408C205.387 177.924 205.552 179.592 205.233 181.201C204.913 182.811 204.124 184.29 202.964 185.45C201.805 186.61 200.327 187.4 198.719 187.72C197.111 188.04 195.444 187.874 193.929 187.245C192.415 186.616 191.121 185.552 190.211 184.186C189.302 182.821 188.817 181.216 188.82 179.575C188.819 178.872 188.906 178.173 189.078 177.492C189.197 177.084 189.232 176.657 189.183 176.235C189.133 175.813 188.999 175.406 188.789 175.037C188.578 174.668 188.296 174.346 187.959 174.088C187.621 173.831 187.235 173.645 186.824 173.54C186.413 173.435 185.985 173.414 185.565 173.478C185.146 173.543 184.744 173.691 184.383 173.914C184.022 174.137 183.71 174.43 183.464 174.777C183.219 175.123 183.046 175.516 182.956 175.931C182.403 178.091 182.35 180.349 182.802 182.532C183.254 184.716 184.199 186.767 185.564 188.53C186.929 190.292 188.679 191.719 190.679 192.702C192.679 193.684 194.877 194.196 197.105 194.199H197.094Z" fill="url(#paint14_linear)"/>
</g>
<defs>
<linearGradient id="paint0_linear" x1="112.219" y1="207.667" x2="112.219" y2="213.993" gradientUnits="userSpaceOnUse">
<stop stop-color="#1E90FF"/>
<stop offset="0.328125" stop-color="#2014AB"/>
<stop offset="0.588542" stop-color="#712CA8"/>
<stop offset="0.807292" stop-color="#C642B0"/>
<stop offset="1" stop-color="#FF6348"/>
</linearGradient>
<linearGradient id="paint1_linear" x1="72.5492" y1="175.766" x2="72.5492" y2="238.013" gradientUnits="userSpaceOnUse">
<stop stop-color="#1E90FF"/>
<stop offset="0.328125" stop-color="#2014AB"/>
<stop offset="0.588542" stop-color="#712CA8"/>
<stop offset="0.807292" stop-color="#C642B0"/>
<stop offset="1" stop-color="#FF6348"/>
</linearGradient>
<linearGradient id="paint2_linear" x1="80.3601" y1="218.172" x2="80.3601" y2="245.982" gradientUnits="userSpaceOnUse">
<stop stop-color="#1E90FF"/>
<stop offset="0.328125" stop-color="#2014AB"/>
<stop offset="0.588542" stop-color="#712CA8"/>
<stop offset="0.807292" stop-color="#C642B0"/>
<stop offset="1" stop-color="#FF6348"/>
</linearGradient>
<linearGradient id="paint3_linear" x1="89.789" y1="130.558" x2="89.789" y2="136.885" gradientUnits="userSpaceOnUse">
<stop stop-color="#1E90FF"/>
<stop offset="0.328125" stop-color="#2014AB"/>
<stop offset="0.588542" stop-color="#712CA8"/>
<stop offset="0.807292" stop-color="#C642B0"/>
<stop offset="1" stop-color="#FF6348"/>
</linearGradient>
<linearGradient id="paint4_linear" x1="104.311" y1="152.286" x2="104.311" y2="158.613" gradientUnits="userSpaceOnUse">
<stop stop-color="#1E90FF"/>
<stop offset="0.328125" stop-color="#2014AB"/>
<stop offset="0.588542" stop-color="#712CA8"/>
<stop offset="0.807292" stop-color="#C642B0"/>
<stop offset="1" stop-color="#FF6348"/>
</linearGradient>
<linearGradient id="paint5_linear" x1="75.2876" y1="152.286" x2="75.2876" y2="158.613" gradientUnits="userSpaceOnUse">
<stop stop-color="#1E90FF"/>
<stop offset="0.328125" stop-color="#2014AB"/>
<stop offset="0.588542" stop-color="#712CA8"/>
<stop offset="0.807292" stop-color="#C642B0"/>
<stop offset="1" stop-color="#FF6348"/>
</linearGradient>
<linearGradient id="paint6_linear" x1="60.7743" y1="130.558" x2="60.7743" y2="136.885" gradientUnits="userSpaceOnUse">
<stop stop-color="#1E90FF"/>
<stop offset="0.328125" stop-color="#2014AB"/>
<stop offset="0.588542" stop-color="#712CA8"/>
<stop offset="0.807292" stop-color="#C642B0"/>
<stop offset="1" stop-color="#FF6348"/>
</linearGradient>
<linearGradient id="paint7_linear" x1="46.2613" y1="152.286" x2="46.2613" y2="158.613" gradientUnits="userSpaceOnUse">
<stop stop-color="#1E90FF"/>
<stop offset="0.328125" stop-color="#2014AB"/>
<stop offset="0.588542" stop-color="#712CA8"/>
<stop offset="0.807292" stop-color="#C642B0"/>
<stop offset="1" stop-color="#FF6348"/>
</linearGradient>
<linearGradient id="paint8_linear" x1="118.875" y1="130.558" x2="118.875" y2="136.885" gradientUnits="userSpaceOnUse">
<stop stop-color="#1E90FF"/>
<stop offset="0.328125" stop-color="#2014AB"/>
<stop offset="0.588542" stop-color="#712CA8"/>
<stop offset="0.807292" stop-color="#C642B0"/>
<stop offset="1" stop-color="#FF6348"/>
</linearGradient>
<linearGradient id="paint9_linear" x1="133.441" y1="152.286" x2="133.441" y2="158.613" gradientUnits="userSpaceOnUse">
<stop stop-color="#1E90FF"/>
<stop offset="0.328125" stop-color="#2014AB"/>
<stop offset="0.588542" stop-color="#712CA8"/>
<stop offset="0.807292" stop-color="#C642B0"/>
<stop offset="1" stop-color="#FF6348"/>
</linearGradient>
<linearGradient id="paint10_linear" x1="75.4932" y1="117.193" x2="75.4932" y2="176.447" gradientUnits="userSpaceOnUse">
<stop stop-color="#1E90FF"/>
<stop offset="0.328125" stop-color="#2014AB"/>
<stop offset="0.588542" stop-color="#712CA8"/>
<stop offset="0.807292" stop-color="#C642B0"/>
<stop offset="1" stop-color="#FF6348"/>
</linearGradient>
<linearGradient id="paint11_linear" x1="197.273" y1="86.9236" x2="197.273" y2="93.2498" gradientUnits="userSpaceOnUse">
<stop stop-color="#1E90FF"/>
<stop offset="0.328125" stop-color="#2014AB"/>
<stop offset="0.588542" stop-color="#712CA8"/>
<stop offset="0.807292" stop-color="#C642B0"/>
<stop offset="1" stop-color="#FF6348"/>
</linearGradient>
<linearGradient id="paint12_linear" x1="197.094" y1="0.200928" x2="197.094" y2="245.554" gradientUnits="userSpaceOnUse">
<stop stop-color="#1E90FF"/>
<stop offset="0.328125" stop-color="#2014AB"/>
<stop offset="0.588542" stop-color="#712CA8"/>
<stop offset="0.807292" stop-color="#C642B0"/>
<stop offset="1" stop-color="#FF6348"/>
</linearGradient>
<linearGradient id="paint13_linear" x1="197.409" y1="128.582" x2="197.409" y2="142.316" gradientUnits="userSpaceOnUse">
<stop stop-color="#1E90FF"/>
<stop offset="0.328125" stop-color="#2014AB"/>
<stop offset="0.588542" stop-color="#712CA8"/>
<stop offset="0.807292" stop-color="#C642B0"/>
<stop offset="1" stop-color="#FF6348"/>
</linearGradient>
<linearGradient id="paint14_linear" x1="197.246" y1="164.965" x2="197.246" y2="194.202" gradientUnits="userSpaceOnUse">
<stop stop-color="#1E90FF"/>
<stop offset="0.328125" stop-color="#2014AB"/>
<stop offset="0.588542" stop-color="#712CA8"/>
<stop offset="0.807292" stop-color="#C642B0"/>
<stop offset="1" stop-color="#FF6348"/>
</linearGradient>
<clipPath id="clip0">
<rect width="259" height="246" fill="white"/>
</clipPath>
</defs>
</svg>
