<svg width="16" height="16" viewBox="0 0 16 16" fill="none" xmlns="http://www.w3.org/2000/svg">
<path d="M8.06036 0.990854C8.33793 1.04843 8.38179 1.53485 8.0215 1.55957C6.6775 1.55957 5.3335 1.54714 3.9895 1.55971C2.6695 1.58014 1.46165 2.75057 1.45007 4.115C1.44036 6.79757 1.42765 9.48043 1.45022 12.163C1.47107 13.4841 2.60965 14.6893 4.0055 14.7024H8.0215C8.0215 14.7024 8.3225 14.7734 8.3065 15.0076C8.29679 15.1509 8.16893 15.2637 8.0215 15.2739C6.67522 15.2739 5.32879 15.2861 3.9825 15.2736C2.37065 15.2487 0.893075 13.8501 0.878646 12.1504C0.868932 9.46428 0.856218 6.77814 0.878932 4.092C0.904218 2.47871 2.30207 1.00414 4.00193 0.98814H8.0215C8.0345 0.988997 8.0475 0.989854 8.06036 0.990854ZM14.1889 7.84528L10.1052 3.76157C10.0488 3.70071 10.0409 3.67414 10.0294 3.62628C9.98879 3.45743 10.0955 3.28214 10.3072 3.27385C10.3146 3.27414 10.3222 3.27443 10.3296 3.27471C10.3949 3.28243 10.4354 3.28928 10.5092 3.35757L15.0806 7.929C15.1161 7.96728 15.1358 8.01343 15.1426 8.062C15.1675 8.15157 15.1515 8.25285 15.0806 8.333L10.5092 12.9044C10.3901 13.0094 10.3345 13.0013 10.2449 12.9813C10.0479 12.9373 9.95865 12.6666 10.1052 12.5004L14.1889 8.41671H3.45007C3.45007 8.41671 3.28007 8.39643 3.20879 8.28414C3.09979 8.11228 3.1855 7.86185 3.45007 7.84528H14.1889Z" fill="#1E90FF"/>
</svg>
