<svg width="32" height="32" viewBox="0 0 32 32" fill="none" xmlns="http://www.w3.org/2000/svg">
<path d="M15.9997 31.9333C7.19974 31.9333 0.0664062 24.8 0.0664062 16C0.0664062 7.19998 7.19974 0.0666504 15.9997 0.0666504C24.7997 0.0666504 31.9331 7.19998 31.9331 16C31.9331 24.8 24.7997 31.9333 15.9997 31.9333ZM15.9997 1.79999C8.19974 1.79999 1.79974 8.19998 1.79974 16C1.79974 23.8 8.19974 30.2 15.9997 30.2C23.7997 30.2 30.1997 23.8 30.1997 16C30.1997 8.19998 23.7997 1.79999 15.9997 1.79999Z" fill="#1E90FF"/>
<path d="M6.6664 27.5334L5.06641 26.8C5.53307 25.6667 6.99974 25.0667 8.6664 24.3334C10.2664 23.6 12.2664 22.7334 12.2664 21.6667V20.2C11.6664 19.7334 10.7331 18.6667 10.5997 17.1334C10.1331 16.6667 9.39974 15.8 9.39974 14.7334C9.39974 14.0667 9.6664 13.5334 9.8664 13.2C9.73307 12.4667 9.4664 11 9.4664 9.86671C9.4664 6.20004 11.9997 3.80005 15.9997 3.80005C17.1331 3.80005 18.5331 4.13337 19.2664 4.93337C21.0664 5.2667 22.5331 7.40004 22.5331 9.86671C22.5331 11.4667 22.2664 12.8 22.0664 13.4C22.2664 13.7334 22.4664 14.2 22.4664 14.7334C22.4664 16 21.8664 16.8 21.2664 17.2C21.1331 18.7334 20.2664 19.7334 19.7331 20.2V21.6667C19.7331 22.6 21.3997 23.2 22.9331 23.8C24.7331 24.4667 26.5997 25.1334 27.1997 26.6667L25.5331 27.2667C25.2664 26.4667 23.6664 25.9334 22.3331 25.4C20.2664 24.6667 17.9331 23.8 17.9331 21.6667V19.2667L18.3331 19C18.3997 19 19.5331 18.2 19.5331 16.6667V16.0667L20.0664 15.8667C20.1331 15.8 20.6664 15.5334 20.6664 14.7334C20.6664 14.4667 20.4664 14.2 20.3997 14.1334L20.0664 13.7334L20.1997 13.2667C20.1997 13.2667 20.6664 11.8 20.6664 9.80004C20.6664 8.13337 19.7331 6.60004 18.7331 6.60004H18.1997L17.9331 6.13338C17.7331 5.80005 16.9331 5.46672 15.8664 5.46672C12.8664 5.46672 11.0664 7.06671 11.0664 9.80004C11.0664 11.0667 11.5331 13.1334 11.5331 13.1334L11.6664 13.6L11.3331 13.9334C11.3331 13.9334 11.0664 14.2667 11.0664 14.6C11.0664 15.0667 11.6664 15.6667 11.9331 15.9334L12.2664 16.2V16.6667C12.2664 18.1334 13.5331 18.9334 13.5331 18.9334L13.9331 19.2V21.6C13.9331 23.8 11.4664 24.9334 9.2664 25.8667C8.33306 26.4 6.93307 27.0667 6.6664 27.5334Z" fill="#1E90FF"/>
</svg>
