<svg width="54" height="54" viewBox="0 0 54 54" fill="none" xmlns="http://www.w3.org/2000/svg">
<path d="M27 15C33.617 15 39 20.383 39 27C39 33.617 33.617 39 27 39C20.383 39 15 33.617 15 27C15 20.383 20.383 15 27 15ZM27 13C19.268 13 13 19.268 13 27C13 34.73 19.268 41 27 41C34.732 41 41 34.73 41 27C41 19.268 34.732 13 27 13ZM23 20C21.895 20 21 21.344 21 23C21 24.658 21.895 26 23 26C24.105 26 25 24.658 25 23C25 21.344 24.105 20 23 20ZM31 20C29.895 20 29 21.344 29 23C29 24.658 29.895 26 31 26C32.105 26 33 24.658 33 23C33 21.344 32.105 20 31 20ZM35.6 33.8C36.041 33.469 36.131 32.842 35.801 32.401C33.733 29.645 30.444 28.002 27 28.002C23.556 28.002 20.267 29.648 18.2 32.401C17.868 32.842 17.958 33.469 18.399 33.8C18.841 34.13 19.467 34.041 19.799 33.6C21.49 31.346 24.182 30 26.999 30C29.814 30 32.509 31.346 34.197 33.6C34.394 33.863 34.695 34 34.999 34C35.208 34 35.419 33.936 35.6 33.8Z" fill="#1E90FF"/>
<circle cx="27" cy="27" r="25.5" stroke="#1E90FF" stroke-width="3"/>
</svg>
