<svg width="31" height="32" viewBox="0 0 31 32" fill="none" xmlns="http://www.w3.org/2000/svg">
<g clip-path="url(#clip0)">
<path fill-rule="evenodd" clip-rule="evenodd" d="M19.5304 22.4394C17.5087 23.88 15.0351 24.7273 12.3636 24.7273C5.53539 24.7273 0 19.1919 0 12.3636C0 5.53539 5.53539 0 12.3636 0C19.1919 0 24.7273 5.53539 24.7273 12.3636C24.7273 15.7778 23.3434 18.8687 21.106 21.106L29.8295 29.8295C30.2296 30.2296 30.2198 30.8711 29.8182 31.2727C29.4137 31.6772 28.7704 31.6795 28.3749 31.284L19.5304 22.4394ZM12.3636 23.2727C18.3886 23.2727 23.2727 18.3886 23.2727 12.3636C23.2727 6.33871 18.3886 1.45455 12.3636 1.45455C6.33871 1.45455 1.45455 6.33871 1.45455 12.3636C1.45455 18.3886 6.33871 23.2727 12.3636 23.2727Z" fill="#1E90FF"/>
</g>
<defs>
<clipPath id="clip0">
<rect width="30.5455" height="32" fill="white"/>
</clipPath>
</defs>
</svg>
