<svg width="77" height="28" viewBox="0 0 77 28" fill="none" xmlns="http://www.w3.org/2000/svg">
<rect x="0.5" y="0.5" width="76" height="27" rx="4.5" stroke="url(#paint0_linear)"/>
<path d="M19.22 10.208C19.844 10.208 20.402 10.298 20.894 10.478C21.398 10.658 21.872 10.94 22.316 11.324L21.29 12.71C20.966 12.47 20.654 12.296 20.354 12.188C20.054 12.08 19.724 12.026 19.364 12.026C17.936 12.026 17.222 13.112 17.222 15.284C17.222 16.388 17.408 17.186 17.78 17.678C18.152 18.158 18.68 18.398 19.364 18.398C19.7 18.398 20.006 18.344 20.282 18.236C20.57 18.128 20.906 17.954 21.29 17.714L22.316 19.172C21.416 19.904 20.39 20.27 19.238 20.27C18.326 20.27 17.534 20.072 16.862 19.676C16.19 19.268 15.674 18.692 15.314 17.948C14.954 17.204 14.774 16.328 14.774 15.32C14.774 14.312 14.954 13.424 15.314 12.656C15.674 11.876 16.19 11.276 16.862 10.856C17.534 10.424 18.32 10.208 19.22 10.208ZM31.8837 10.478L29.2017 14.888L32.1717 20H29.6337L27.3117 15.77H26.2857V20H23.9817V10.478H26.2857V14.24H27.3657L29.5797 10.478H31.8837ZM37.3092 10.208C38.7132 10.208 39.8052 10.658 40.5852 11.558C41.3772 12.446 41.7732 13.67 41.7732 15.23C41.7732 16.226 41.5932 17.108 41.2332 17.876C40.8732 18.632 40.3572 19.22 39.6852 19.64C39.0132 20.06 38.2152 20.27 37.2912 20.27C35.8872 20.27 34.7892 19.826 33.9972 18.938C33.2052 18.038 32.8092 16.802 32.8092 15.23C32.8092 14.234 32.9892 13.358 33.3492 12.602C33.7092 11.846 34.2252 11.258 34.8972 10.838C35.5812 10.418 36.3852 10.208 37.3092 10.208ZM37.3092 11.954C35.9292 11.954 35.2392 13.046 35.2392 15.23C35.2392 16.358 35.4072 17.192 35.7432 17.732C36.0912 18.26 36.6072 18.524 37.2912 18.524C37.9752 18.524 38.4852 18.254 38.8212 17.714C39.1692 17.174 39.3432 16.346 39.3432 15.23C39.3432 14.114 39.1692 13.292 38.8212 12.764C38.4852 12.224 37.9812 11.954 37.3092 11.954ZM48.8649 10.208C50.0649 10.208 50.9529 10.646 51.5289 11.522C52.1049 12.398 52.3929 13.628 52.3929 15.212C52.3929 16.196 52.2429 17.072 51.9429 17.84C51.6549 18.596 51.2229 19.19 50.6469 19.622C50.0829 20.054 49.4109 20.27 48.6309 20.27C47.6229 20.27 46.8249 19.922 46.2369 19.226V23.672L43.9329 23.924V10.478H45.9489L46.0749 11.648C46.4469 11.168 46.8729 10.808 47.3529 10.568C47.8329 10.328 48.3369 10.208 48.8649 10.208ZM47.9829 18.506C49.3149 18.506 49.9809 17.414 49.9809 15.23C49.9809 14.066 49.8309 13.226 49.5309 12.71C49.2309 12.194 48.7809 11.936 48.1809 11.936C47.7969 11.936 47.4369 12.056 47.1009 12.296C46.7649 12.524 46.4769 12.836 46.2369 13.232V17.516C46.6809 18.176 47.2629 18.506 47.9829 18.506ZM58.5435 10.208C59.9475 10.208 61.0395 10.658 61.8195 11.558C62.6115 12.446 63.0075 13.67 63.0075 15.23C63.0075 16.226 62.8275 17.108 62.4675 17.876C62.1075 18.632 61.5915 19.22 60.9195 19.64C60.2475 20.06 59.4495 20.27 58.5255 20.27C57.1215 20.27 56.0235 19.826 55.2315 18.938C54.4395 18.038 54.0435 16.802 54.0435 15.23C54.0435 14.234 54.2235 13.358 54.5835 12.602C54.9435 11.846 55.4595 11.258 56.1315 10.838C56.8155 10.418 57.6195 10.208 58.5435 10.208ZM58.5435 11.954C57.1635 11.954 56.4735 13.046 56.4735 15.23C56.4735 16.358 56.6415 17.192 56.9775 17.732C57.3255 18.26 57.8415 18.524 58.5255 18.524C59.2095 18.524 59.7195 18.254 60.0555 17.714C60.4035 17.174 60.5775 16.346 60.5775 15.23C60.5775 14.114 60.4035 13.292 60.0555 12.764C59.7195 12.224 59.2155 11.954 58.5435 11.954Z" fill="url(#paint1_linear)"/>
<defs>
<linearGradient id="paint0_linear" x1="38.5" y1="0" x2="38.5" y2="28" gradientUnits="userSpaceOnUse">
<stop stop-color="#1E90FF"/>
<stop offset="0.328125" stop-color="#2014AB"/>
<stop offset="0.588542" stop-color="#712CA8"/>
<stop offset="0.807292" stop-color="#C642B0"/>
<stop offset="1" stop-color="#FF6348"/>
</linearGradient>
<linearGradient id="paint1_linear" x1="39" y1="3" x2="39" y2="25" gradientUnits="userSpaceOnUse">
<stop stop-color="#1E90FF"/>
<stop offset="0.328125" stop-color="#2014AB"/>
<stop offset="0.588542" stop-color="#712CA8"/>
<stop offset="0.807292" stop-color="#C642B0"/>
<stop offset="1" stop-color="#FF6348"/>
</linearGradient>
</defs>
</svg>
